<?xml version="1.0" standalone="no"?>
<!DOCTYPE svg PUBLIC "-//W3C//DTD SVG 20010904//EN"
 "http://www.w3.org/TR/2001/REC-SVG-20010904/DTD/svg10.dtd">
<svg version="1.0" xmlns="http://www.w3.org/2000/svg"
 width="800.000000pt" height="800.000000pt" viewBox="0 0 800.000000 800.000000"
 preserveAspectRatio="xMidYMid meet">
<metadata>
Created by potrace 1.14, written by Peter Selinger 2001-2017
</metadata>
<g transform="translate(0.000000,800.000000) scale(0.100000,-0.100000)"
fill="#000000" stroke="none">
<path d="M5300 6163 c-84 -59 -148 -171 -122 -213 8 -13 7 -22 -2 -36 -7 -11
-21 -43 -31 -71 -12 -34 -26 -55 -39 -59 -41 -13 -57 -56 -35 -92 9 -14 8 -27
-3 -53 -8 -19 -28 -74 -44 -124 l-30 -90 -49 -10 c-28 -6 -73 -10 -102 -9 -32
0 -50 -3 -46 -9 3 -6 1 -7 -5 -3 -6 4 -8 14 -5 23 4 11 3 14 -5 9 -19 -12 -14
2 10 24 12 11 16 20 9 20 -7 0 -9 5 -4 13 4 6 8 15 9 20 1 4 2 10 3 13 0 4 8
0 18 -7 15 -13 15 -12 4 8 -10 19 -9 22 3 17 11 -4 14 0 11 15 -2 11 1 23 6
26 5 4 6 11 3 17 -5 7 -2 8 6 3 10 -6 12 -4 7 9 -4 10 -4 23 0 29 4 7 8 17 9
22 1 6 9 37 18 70 9 32 16 65 16 71 0 19 -33 55 -54 58 -14 2 -24 17 -33 50
-12 39 -20 50 -48 62 -55 23 -102 18 -130 -12 -14 -15 -25 -24 -25 -20 0 3
-13 0 -30 -9 -41 -21 -120 -159 -170 -300 -44 -124 -73 -200 -79 -205 -3 -3
-6 -11 -6 -17 0 -7 -4 -12 -10 -10 -5 1 -9 20 -7 41 1 22 -4 49 -13 62 -8 13
-15 30 -15 38 0 20 -38 87 -59 103 -10 9 -31 12 -58 9 -23 -3 -45 -1 -48 4
-15 24 -90 9 -180 -33 -49 -24 -104 -49 -120 -56 -17 -6 -63 -42 -103 -80 -78
-74 -142 -183 -142 -244 0 -17 -6 -54 -13 -82 -13 -49 -14 -50 -53 -50 -21 0
-42 -4 -46 -10 -5 -6 -8 -6 -8 2 0 6 5 15 10 18 6 4 7 11 4 17 -4 6 0 15 7 20
11 7 11 11 2 15 -7 2 -13 9 -13 14 0 6 5 7 10 4 6 -3 10 1 10 10 0 9 -4 14 -9
11 -10 -7 -9 19 1 30 4 3 4 17 2 30 -2 13 -1 24 4 24 4 0 8 -10 9 -22 0 -13 4
-32 9 -43 7 -18 6 -19 -11 -5 -16 12 -15 9 4 -17 25 -37 28 -39 28 -18 0 8 -4
12 -9 9 -4 -3 -8 -1 -8 5 0 5 5 13 10 16 6 4 4 13 -6 23 -15 15 -15 16 2 23
16 7 17 8 2 8 -11 1 -16 8 -13 21 2 11 -1 20 -7 20 -6 0 -5 7 3 17 10 11 10
14 2 9 -9 -5 -13 -1 -14 11 -1 59 -13 111 -30 135 -10 15 -19 40 -19 56 0 33
-40 82 -66 82 -10 0 -27 8 -38 18 -40 35 -125 64 -167 57 -21 -4 -41 -11 -45
-16 -3 -5 -14 -9 -25 -9 -31 0 -129 -109 -129 -144 0 -9 -4 -16 -9 -16 -5 0
-11 -12 -14 -27 -3 -16 -20 -45 -38 -67 -18 -21 -34 -53 -36 -70 -2 -17 -12
-38 -23 -48 -21 -17 -28 -34 -9 -22 6 3 3 -8 -6 -25 -9 -18 -23 -35 -31 -38
-7 -3 -14 -9 -14 -15 0 -5 5 -6 10 -3 6 4 5 -5 -2 -19 -6 -14 -14 -26 -18 -26
-4 0 -7 -10 -6 -22 0 -11 -5 -22 -12 -24 -7 -1 -8 0 -3 2 5 3 7 16 5 30 -2 13
-1 24 4 24 4 0 8 8 9 18 2 30 9 50 21 64 6 8 8 19 4 24 -4 4 1 2 10 -5 16 -12
17 -10 13 18 -2 17 0 33 5 36 5 3 7 12 3 20 -3 8 0 15 7 15 7 0 10 7 7 15 -4
8 -2 17 4 20 5 4 7 10 4 15 -3 5 -1 11 5 15 6 4 7 11 4 17 -4 7 -2 8 5 4 8 -5
10 0 7 17 -3 16 3 33 15 46 21 23 26 46 7 35 -9 -5 -9 -2 1 9 7 9 10 17 6 17
-4 0 -2 6 4 13 6 8 7 18 3 22 -4 5 -1 5 6 1 11 -6 17 5 13 27 0 4 2 7 7 7 15
0 12 134 -5 175 -17 41 -45 75 -61 75 -6 0 -13 11 -16 24 -10 39 -67 54 -166
42 -51 -7 -123 -52 -128 -81 -2 -11 -10 -25 -17 -30 -30 -24 -148 -277 -190
-410 -25 -77 -54 -160 -64 -185 -10 -25 -29 -99 -41 -165 -13 -66 -27 -124
-32 -130 -4 -5 -8 -18 -8 -28 0 -18 -6 -19 -82 -15 -73 5 -156 -2 -225 -17
-17 -4 -21 -2 -17 10 4 8 1 15 -5 15 -6 0 -10 -3 -10 -7 3 -19 -2 -36 -8 -30
-3 4 -16 0 -29 -8 -20 -13 -22 -12 -20 2 1 8 11 20 21 25 14 8 16 8 10 -3 -5
-8 -4 -10 0 -6 16 14 14 36 -3 30 -13 -4 -14 -3 -4 5 8 5 14 13 14 18 2 23 11
44 19 44 5 0 6 -7 3 -15 -4 -8 -2 -15 3 -15 20 0 22 14 6 32 -13 14 -14 21 -5
27 6 4 10 17 8 28 -3 12 2 27 10 33 7 7 11 16 8 21 -3 5 1 11 8 14 8 3 15 13
16 23 2 20 10 56 12 60 2 1 3 6 4 11 0 5 4 12 8 16 4 4 4 13 1 21 -3 8 1 14 8
14 7 0 10 3 7 6 -4 3 5 22 18 41 13 19 21 40 17 47 -3 6 -2 8 2 3 9 -7 14 -30
18 -74 1 -13 6 -18 11 -13 6 6 5 19 -2 35 -16 35 -15 40 5 24 16 -13 16 -13 0
11 -24 34 -21 51 3 20 16 -20 19 -21 13 -5 -9 26 -25 36 -38 25 -13 -11 -14
38 -2 58 5 6 6 12 2 12 -3 0 -1 9 4 19 13 23 -3 77 -25 85 -9 3 -13 10 -10 15
10 16 -15 68 -38 81 -15 8 -24 21 -24 37 0 14 -6 31 -13 38 -12 12 -74 19
-147 16 -60 -2 -154 -156 -238 -389 -19 -52 -59 -152 -89 -222 -30 -70 -55
-133 -55 -141 0 -8 -16 -50 -35 -94 -19 -44 -35 -87 -35 -95 0 -42 -31 -55
-170 -75 -64 -9 -101 -15 -130 -20 -14 -3 -38 -7 -55 -9 -16 -3 -84 -14 -150
-25 -66 -11 -138 -23 -160 -26 -22 -3 -46 -8 -52 -10 -16 -6 -19 -885 -3 -885
5 0 99 25 207 56 109 31 202 57 208 57 17 3 4 -67 -25 -130 -39 -83 -43 -103
-31 -150 12 -45 88 -123 118 -123 10 0 31 -14 46 -32 16 -18 26 -27 22 -20 -3
6 -1 12 5 12 6 0 9 4 6 9 -4 5 3 7 13 4 12 -3 17 -11 14 -20 -5 -12 -7 -12
-14 -1 -5 7 -9 9 -9 3 0 -5 5 -17 10 -25 9 -13 10 -13 10 0 0 13 1 13 10 0 7
-11 10 -11 10 -2 0 7 5 10 10 7 8 -5 8 -11 0 -20 -8 -9 -8 -15 0 -20 6 -4 9
-1 8 7 -2 7 3 12 11 10 11 -2 12 0 4 10 -14 16 -14 28 -2 51 6 11 6 17 -1 17
-5 0 -10 -6 -10 -14 0 -7 -7 -19 -15 -26 -18 -15 -20 1 -3 19 9 10 9 12 1 7
-6 -3 -15 -1 -19 6 -4 7 -4 10 1 6 4 -4 20 -1 34 7 26 13 27 12 27 -11 0 -13
-4 -24 -9 -24 -4 0 -5 -6 0 -12 10 -17 10 -2 11 -385 2 -261 5 -331 15 -328 6
2 100 31 207 65 217 69 537 171 735 235 72 23 132 38 133 33 2 -5 -7 -37 -21
-71 -13 -34 -28 -82 -32 -107 -4 -24 -14 -55 -22 -67 -14 -21 -65 -182 -103
-326 -10 -38 -20 -70 -22 -72 -2 -1 -63 -33 -135 -69 -73 -36 -133 -69 -134
-74 0 -4 -2 -16 -4 -27 -3 -11 -7 -40 -10 -65 -3 -25 -10 -74 -16 -110 -6 -36
-12 -76 -14 -90 -1 -14 -6 -42 -10 -64 -7 -36 -7 -38 15 -31 47 15 155 45 162
45 4 0 10 -20 14 -45 3 -25 14 -55 24 -68 9 -12 20 -32 24 -44 4 -12 15 -25
25 -28 26 -8 81 -51 76 -59 -3 -3 0 -2 6 3 13 11 51 2 44 -10 -3 -4 -12 -6
-19 -3 -8 3 -17 1 -20 -4 -3 -5 7 -8 22 -6 32 3 63 -21 55 -44 -4 -15 -3 -15
6 -2 6 8 11 10 11 5 0 -13 38 -17 45 -4 3 5 -1 6 -10 3 -11 -5 -14 -2 -9 10 3
9 11 13 17 9 6 -4 7 -1 2 7 -5 8 -3 11 6 8 8 -3 13 -11 12 -17 -2 -6 2 -11 7
-11 14 0 13 13 -2 28 -6 6 -9 15 -5 19 4 3 14 -2 23 -13 8 -10 12 -13 8 -5 -3
7 0 18 7 23 12 8 11 9 -1 5 -8 -2 -23 0 -34 5 -14 8 -17 7 -11 -3 6 -8 4 -10
-5 -4 -9 6 -11 4 -5 -5 6 -9 4 -11 -5 -5 -9 6 -11 4 -5 -6 7 -11 5 -11 -10 1
-10 8 -16 10 -13 4 4 -6 -3 -10 -17 -10 -13 0 -21 4 -18 10 3 5 1 6 -5 2 -7
-4 -12 -2 -12 3 0 14 17 14 26 0 4 -7 9 -8 13 -1 3 6 13 12 20 14 25 5 49 30
44 44 -3 8 0 14 5 14 6 0 9 10 7 21 -3 12 -2 19 2 15 4 -3 15 1 25 11 13 12
18 13 18 3 0 -7 3 -10 8 -6 4 4 7 11 7 15 0 4 8 15 17 24 12 13 18 14 22 4 4
-6 4 -2 2 11 -3 14 1 25 10 29 8 3 11 9 8 14 -3 5 -2 8 3 7 4 -2 8 0 8 3 0 3
7 14 15 24 16 19 21 75 7 75 -4 0 -5 5 -2 10 4 6 11 7 17 4 7 -4 8 -2 4 5 -4
6 -3 18 3 25 7 8 10 19 9 26 -2 8 146 55 431 137 434 126 435 126 451 105 10
-11 38 -34 63 -50 26 -16 44 -32 40 -36 -3 -3 -1 -6 5 -6 7 0 12 -7 12 -15 0
-8 7 -15 15 -15 8 0 15 -5 15 -11 0 -6 7 -9 15 -5 10 3 15 -1 15 -12 0 -14 2
-14 9 -3 6 9 15 11 27 6 18 -8 48 -10 59 -5 3 1 14 4 25 5 11 1 22 4 25 5 3 1
8 3 13 4 14 3 47 25 37 26 -5 0 1 7 13 16 17 12 26 13 36 5 10 -9 15 -8 20 5
4 9 9 14 13 10 3 -3 15 1 25 11 10 9 18 13 18 9 0 -3 10 0 23 9 13 8 27 12 32
8 4 -5 5 0 2 9 -3 9 1 22 9 28 8 7 14 9 14 6 0 -4 11 5 24 19 14 15 28 26 33
26 4 -1 8 4 8 9 0 6 7 15 15 20 8 5 15 13 15 17 1 4 6 18 13 29 6 12 8 25 4
30 -4 5 2 2 12 -6 18 -14 19 -13 13 4 -5 12 -3 22 5 27 7 5 14 13 14 19 1 5 2
14 3 19 1 11 30 22 46 18 5 -1 9 -5 8 -9 -2 -4 5 -4 14 -1 15 6 16 5 3 -9 -13
-15 -17 -15 -26 -2 -15 19 -24 18 -19 -4 1 -10 -3 -26 -11 -37 -8 -10 -14 -13
-14 -6 0 7 -5 9 -11 5 -6 -3 -7 -9 -3 -13 5 -3 10 -10 11 -16 1 -5 4 -19 8
-30 4 -14 2 -12 -9 5 -10 16 -15 19 -16 10 0 -13 -1 -13 -11 0 -9 13 -10 13
-6 0 2 -8 10 -14 17 -12 8 2 10 -3 6 -13 -3 -9 -6 -19 -6 -21 0 -2 -5 -4 -11
-4 -5 0 -8 4 -5 8 2 4 1 14 -3 21 -6 9 -11 10 -15 2 -4 -6 -1 -11 6 -11 9 0 9
-3 -2 -10 -13 -9 -13 -10 0 -10 12 -1 11 -3 -3 -11 -9 -5 -23 -7 -30 -4 -6 4
-3 -1 7 -9 11 -9 14 -16 8 -16 -7 0 -11 -6 -9 -12 1 -7 -6 -12 -15 -12 -10 1
-15 -3 -11 -9 4 -6 1 -7 -7 -2 -7 5 -11 4 -7 -1 3 -5 -1 -18 -9 -29 -10 -13
-14 -15 -14 -4 0 12 -2 12 -9 -1 -6 -8 -8 -17 -5 -21 2 -5 -5 -6 -16 -4 -13 3
-18 0 -14 -7 5 -7 2 -8 -6 -3 -9 5 -11 4 -6 -3 5 -8 1 -10 -11 -6 -15 5 -16 4
-3 -5 13 -9 13 -11 0 -12 -8 -1 -18 -1 -22 0 -4 0 -5 -7 -2 -17 4 -13 4 -14
-4 -4 -13 19 -16 19 -35 3 -14 -11 -20 -11 -34 0 -14 12 -16 12 -8 0 6 -10 4
-12 -5 -6 -9 6 -11 4 -6 -6 4 -8 1 -6 -7 4 -13 16 -15 16 -21 2 -3 -9 -2 -14
2 -11 5 3 9 -1 9 -9 0 -8 -5 -11 -10 -8 -6 3 -7 1 -3 -5 5 -8 1 -10 -11 -6
-15 5 -16 4 -3 -6 13 -10 13 -11 -2 -7 -22 8 -30 -3 -16 -22 12 -15 11 -15 -7
0 -22 17 -52 19 -74 5 -9 -6 -12 -5 -7 2 10 16 -11 25 -31 12 -16 -9 -15 -10
4 -5 18 5 22 3 17 -9 -3 -9 -1 -17 5 -17 26 -3 30 -4 37 -12 4 -4 2 -7 -5 -7
-7 0 -9 -5 -6 -10 4 -7 14 -3 25 10 23 26 21 26 46 12 24 -12 44 -3 49 24 2
10 4 21 4 24 1 3 6 -2 11 -10 6 -9 10 -11 10 -3 0 7 7 10 18 7 13 -4 14 -3 4
4 -11 7 -11 10 2 15 9 4 16 2 16 -4 0 -5 10 -1 22 11 23 21 38 19 20 -3 -8
-10 -6 -13 11 -14 13 -1 17 1 10 5 -8 5 -9 13 -3 22 9 13 10 13 10 0 1 -12 4
-11 15 4 8 10 12 22 10 26 -3 5 2 10 10 14 8 3 19 -3 24 -12 7 -11 11 -12 11
-4 0 8 5 10 13 6 9 -6 9 -4 -1 8 -9 11 -10 18 -2 23 5 3 10 1 10 -5 0 -7 7 -4
16 5 9 9 13 19 10 23 -4 3 -11 1 -15 -7 -6 -10 -10 -9 -15 5 -3 9 -4 19 -1 22
3 3 5 0 5 -8 0 -10 3 -10 15 0 9 8 15 9 15 2 0 -6 10 -9 21 -7 25 5 42 18 19
15 -28 -4 -41 0 -35 11 4 6 9 8 12 5 3 -3 15 0 26 6 20 10 20 11 1 22 -10 6
-20 17 -21 24 -4 17 8 15 23 -5 10 -14 15 -15 25 -6 9 9 9 16 1 25 -7 9 -7 19
-2 28 6 8 10 11 10 5 0 -5 11 3 24 18 15 17 22 35 19 45 -5 14 -2 14 18 -3 15
-13 19 -14 11 -3 -9 11 -10 18 -2 23 14 9 30 -3 30 -23 0 -26 96 -119 135
-132 23 -7 33 -16 28 -23 -4 -7 1 -6 10 2 9 7 17 10 17 5 0 -5 4 -4 8 1 4 6
20 21 36 33 16 12 25 22 21 22 -5 0 -1 8 8 18 8 9 16 20 16 25 0 4 7 21 16 37
11 21 20 27 32 23 10 -4 14 -2 9 5 -3 6 3 17 15 25 11 8 22 23 24 33 2 11 4
20 5 22 2 1 4 11 5 22 1 11 4 22 5 25 1 3 3 9 4 15 0 5 10 16 21 25 18 14 18
14 1 8 -14 -4 -17 -2 -14 8 3 8 11 13 18 11 8 -2 10 3 7 13 -4 8 -1 15 6 16
17 1 31 5 131 39 84 28 91 29 108 13 15 -13 17 -26 12 -82 -5 -59 -3 -70 18
-101 13 -19 27 -43 31 -53 4 -11 16 -21 27 -24 11 -3 20 -10 20 -15 0 -5 16
-16 35 -24 20 -8 33 -19 30 -24 -3 -5 0 -12 6 -16 8 -4 9 -3 5 4 -9 14 35 34
79 36 44 2 121 64 120 96 -1 14 1 30 4 35 3 6 6 15 8 20 1 6 5 21 9 34 5 15 3
22 -3 18 -7 -4 -10 11 -9 41 1 39 4 46 18 44 12 -2 16 2 12 13 -3 8 -10 12
-15 9 -5 -3 -6 2 -3 11 4 9 13 14 20 11 8 -3 11 0 7 9 -3 8 -9 13 -13 10 -7
-4 -7 17 0 35 1 3 2 8 1 12 0 4 7 4 16 1 12 -5 14 -3 7 8 -13 21 -13 36 0 36
6 0 20 4 31 8 11 4 15 3 9 -2 -6 -4 -10 -16 -8 -26 1 -10 -4 -21 -11 -23 -7
-3 -12 -14 -10 -25 2 -10 -1 -19 -6 -19 -6 0 -7 -9 -4 -22 6 -17 4 -20 -10
-14 -13 5 -15 3 -8 -6 11 -15 15 -58 5 -58 -4 0 -8 -25 -8 -55 1 -42 -4 -58
-19 -71 -17 -13 -17 -15 -2 -10 15 5 16 3 5 -17 -12 -22 -14 -28 -17 -48 0 -5
-5 -8 -10 -4 -5 3 -12 1 -16 -5 -3 -5 1 -10 9 -10 10 0 14 -8 11 -27 -2 -16
-4 -28 -5 -28 -1 0 -3 -7 -5 -16 -1 -9 10 -31 26 -49 18 -19 29 -42 29 -59 0
-36 22 -54 61 -53 27 1 74 -29 63 -40 -2 -2 10 -3 26 -2 28 2 42 -10 20 -18
-6 -2 0 -9 12 -17 20 -12 21 -12 11 0 -10 12 -9 18 5 31 9 9 23 24 30 33 7 8
17 13 21 11 4 -3 13 4 21 14 13 18 15 18 28 2 7 -9 11 -11 7 -4 -4 7 -1 20 7
29 11 15 11 16 -4 10 -10 -3 -18 -2 -18 2 0 5 7 12 16 15 9 4 14 9 10 13 -3 3
3 13 15 21 11 8 23 11 26 8 4 -3 1 -6 -6 -6 -7 0 -9 -5 -6 -10 3 -6 -1 -13 -9
-16 -11 -4 -14 -15 -12 -31 6 -33 -3 -55 -21 -49 -9 4 -11 2 -7 -6 4 -6 3 -8
-4 -4 -6 3 -13 2 -17 -4 -8 -13 15 -13 35 0 11 7 17 5 22 -8 6 -15 7 -15 7 2
1 12 6 16 15 13 10 -4 13 -1 9 8 -3 8 -10 12 -16 8 -6 -4 -8 0 -4 10 3 10 2
17 -4 17 -6 0 -8 4 -4 10 3 5 12 7 20 4 8 -4 13 -10 10 -14 -3 -5 -1 -11 4
-14 5 -4 8 1 7 10 -1 8 -8 19 -15 23 -16 11 -17 12 -2 39 7 13 17 20 24 15 9
-5 9 -3 0 9 -7 8 -9 19 -5 23 4 5 1 5 -6 1 -7 -4 -10 -12 -7 -17 3 -5 -1 -6
-10 -2 -10 3 -12 8 -6 12 11 7 10 29 -3 50 -6 9 -5 12 1 8 11 -7 11 86 0 131
-4 13 -2 20 4 17 6 -4 7 5 4 24 -3 16 0 33 5 36 6 4 7 11 4 17 -4 7 -2 8 4 4
7 -4 12 -3 12 3 0 5 -5 11 -12 13 -7 3 -8 9 -3 19 5 8 10 23 11 35 0 12 4 29
7 39 6 14 10 15 22 5 8 -7 15 -9 15 -5 0 4 6 2 13 -4 8 -6 17 -8 21 -4 4 4 4
-1 0 -12 -6 -16 -4 -18 6 -8 8 7 19 9 29 4 9 -5 24 -7 33 -6 9 2 19 -3 22 -10
2 -7 17 -12 35 -10 17 1 30 0 29 -4 -2 -18 3 -24 11 -13 7 11 9 11 14 -1 4
-11 1 -15 -11 -12 -9 1 -24 -4 -32 -13 -13 -14 -12 -15 2 -9 9 3 19 1 22 -6 2
-7 5 -4 5 6 1 10 6 15 11 12 6 -4 8 -11 5 -16 -4 -5 -1 -9 5 -9 6 0 8 12 5 29
-5 27 -3 29 22 26 16 -2 28 -4 28 -5 0 -1 11 -4 25 -7 33 -6 54 -11 60 -13 3
-1 8 -2 12 -1 11 1 30 -38 23 -49 -3 -5 -1 -11 4 -14 5 -4 12 -2 16 4 4 6 11
7 17 4 6 -4 5 -10 -3 -16 -11 -8 -11 -9 -1 -6 8 2 13 7 12 12 -1 5 4 13 12 18
9 7 7 8 -7 3 -16 -5 -17 -4 -8 6 10 10 15 9 28 -1 12 -10 15 -10 15 0 0 8 4 9
13 3 15 -11 47 -11 66 1 10 6 12 5 7 -2 -9 -15 1 -16 17 -2 7 5 26 21 44 35
19 16 30 32 26 40 -3 8 0 15 7 15 6 0 8 5 5 10 -4 6 -3 10 2 9 20 -3 34 2 28
11 -3 6 2 14 12 18 20 8 26 24 25 62 0 14 2 19 5 12 2 -6 9 -10 14 -6 5 3 9 0
9 -7 0 -7 3 -9 6 -6 4 3 15 2 26 -4 20 -11 53 -20 76 -21 6 -1 12 -5 12 -10 0
-4 9 -8 20 -8 11 0 20 -4 20 -9 0 -10 -19 -9 -37 2 -8 5 -13 4 -13 -2 0 -6 5
-11 11 -11 5 0 7 -6 3 -12 -6 -10 -5 -10 8 -1 15 13 28 8 28 -9 0 -5 -4 -6
-10 -3 -5 3 -10 1 -10 -4 0 -15 17 -14 26 1 5 8 10 7 18 -4 10 -13 13 -13 24
-2 13 14 5 19 -20 15 -5 0 -8 4 -8 10 0 5 -4 7 -10 4 -6 -3 -7 1 -4 9 5 14 8
14 21 1 8 -8 18 -15 23 -15 5 0 16 -12 25 -27 15 -27 16 -27 10 -3 -4 17 -3
21 3 12 5 -8 12 -13 16 -13 17 2 17 0 5 -16 -12 -15 -12 -16 1 -8 8 5 62 10
120 11 58 1 105 3 105 4 0 1 9 4 20 6 34 8 50 12 50 14 0 3 41 11 58 11 10 0
15 5 11 11 -4 6 -2 8 4 4 6 -3 15 0 19 9 7 12 11 11 21 -6 11 -17 11 -20 0
-13 -11 6 -11 5 0 -9 12 -14 11 -16 -7 -12 -15 3 -19 0 -14 -8 4 -7 -2 -5 -12
3 -15 12 -17 12 -10 1 5 -10 4 -12 -4 -7 -7 5 -10 2 -9 -6 3 -14 -28 -19 -53
-7 -10 5 -16 3 -16 -6 0 -7 7 -11 16 -8 10 3 12 1 6 -4 -19 -16 -17 -42 4 -40
11 0 17 5 15 9 -3 5 -10 6 -15 3 -5 -3 -6 1 -3 9 5 12 10 13 24 4 10 -7 17
-15 15 -18 -2 -4 2 -7 10 -7 8 0 12 4 9 8 -2 4 5 13 16 19 15 8 20 8 20 -2 1
-7 8 0 16 15 12 22 20 26 36 21 15 -4 19 -2 16 7 -3 8 -1 22 4 32 8 15 12 16
26 6 14 -11 15 -11 5 1 -18 19 -16 35 1 21 11 -9 16 -9 22 0 5 8 3 9 -6 4 -8
-5 -11 -3 -8 6 3 8 16 13 29 12 17 -1 19 0 5 4 -15 4 -16 7 -5 14 10 6 10 9 2
9 -7 0 -13 7 -13 15 0 8 6 15 13 15 8 0 7 4 -3 10 -14 9 -7 15 14 11 5 -1 5 4
-1 11 -6 7 -12 16 -12 21 -1 4 -3 7 -6 7 -3 0 -8 0 -11 0 -4 0 -1 -6 5 -14 9
-10 8 -16 -3 -25 -8 -7 -13 -21 -11 -31 2 -12 -6 -25 -22 -35 -14 -10 -23 -13
-20 -8 4 5 0 10 -8 10 -11 0 -12 -4 -4 -14 8 -9 8 -13 1 -13 -6 0 -9 -10 -7
-21 4 -21 4 -21 -18 -3 -22 19 -22 19 -6 -1 31 -39 34 -48 10 -36 -11 7 -21
14 -21 17 0 3 6 2 13 -2 6 -4 3 3 -8 16 -14 16 -16 24 -7 27 6 3 9 10 5 16 -4
7 1 5 12 -3 16 -14 17 -13 11 6 -4 15 -2 24 9 27 8 4 12 13 9 20 -6 16 22 31
39 20 7 -4 8 0 4 11 -5 11 -3 15 5 10 7 -5 9 -2 5 8 -7 20 21 60 36 52 7 -4 3
4 -9 17 -11 13 -20 31 -19 39 1 8 3 21 3 28 1 7 7 10 14 6 7 -4 8 -3 4 4 -4 6
-12 9 -19 6 -8 -3 -12 13 -13 54 -1 59 -41 169 -70 193 -8 6 -14 18 -14 26 0
8 -9 28 -21 45 -12 16 -20 31 -18 32 2 2 55 18 117 36 l112 33 0 153 0 153
-27 -5 c-16 -3 -41 -8 -58 -13 -16 -4 -38 -7 -47 -5 -10 1 -18 -2 -18 -8 0 -6
-7 -8 -15 -4 -8 3 -15 0 -15 -7 0 -8 -3 -8 -9 2 -6 9 -11 10 -15 2 -4 -6 -12
-9 -17 -6 -5 4 -9 1 -9 -5 0 -7 -7 -10 -15 -7 -8 4 -17 2 -20 -3 -10 -16 -28
-11 -22 5 4 8 1 17 -5 21 -7 5 -8 2 -3 -6 5 -9 4 -11 -3 -6 -8 5 -10 2 -6 -8
3 -9 1 -17 -5 -17 -21 -3 -26 -4 -40 -13 -10 -6 -12 -5 -7 2 4 7 2 12 -3 12
-6 0 -11 -4 -11 -10 0 -5 -4 -10 -10 -10 -5 0 -7 7 -4 15 4 8 14 15 23 15 12
0 13 2 3 9 -11 7 -11 9 0 13 7 3 16 5 19 4 4 0 15 7 25 16 11 9 22 17 26 18 4
1 17 4 27 7 11 3 23 4 27 3 4 -1 10 3 14 10 4 6 14 12 22 14 28 4 68 36 94 76
15 22 29 38 31 36 3 -3 1 -11 -3 -18 -5 -7 -9 -20 -9 -28 0 -8 -6 -14 -13 -12
-8 1 -11 -2 -6 -9 4 -8 3 -9 -4 -5 -8 5 -10 2 -6 -8 6 -14 -5 -21 -28 -17 -8
1 -12 -15 -9 -32 1 -5 -4 -5 -10 -1 -7 4 -9 3 -5 -4 7 -12 -12 -11 -34 2 -8 5
-4 -3 9 -17 25 -27 43 -38 23 -14 -9 10 -4 13 23 13 18 0 31 -5 28 -10 -3 -5
-1 -6 6 -2 6 4 9 12 6 17 -4 5 -2 9 4 9 5 0 12 -6 15 -12 8 -19 -1 34 -9 55
-6 13 -3 16 9 11 9 -3 13 -11 9 -18 -4 -6 1 -5 10 3 15 12 15 16 2 41 -8 16
-11 31 -6 34 5 4 11 3 14 -1 2 -5 2 -1 -1 7 -3 8 -6 30 -8 49 -2 19 -8 39 -14
45 -5 5 -10 18 -10 28 0 10 -11 41 -25 69 -29 56 -58 73 -104 59 -22 -6 -33
-5 -42 6 -6 8 -25 14 -41 14 -32 0 -130 -39 -187 -74 -20 -12 -47 -23 -60 -24
-16 0 -50 -27 -96 -72 l-72 -71 -1 32 c-2 59 -94 129 -171 129 -32 0 -58 -12
-133 -62 -51 -34 -118 -83 -148 -108 -30 -26 -61 -45 -68 -43 -7 3 -11 1 -10
-4 5 -14 -49 -74 -64 -71 -6 2 -12 -3 -13 -11 0 -8 -7 -16 -15 -18 -12 -4 -12
-3 -2 5 8 5 13 12 13 16 -1 3 0 8 0 11 1 3 2 13 3 23 0 11 6 25 13 33 6 8 11
16 11 19 0 10 26 66 43 90 9 14 17 30 18 35 0 6 7 18 15 27 8 9 13 28 10 42
-2 14 0 27 5 31 6 3 7 13 4 22 -5 12 -3 14 8 8 12 -7 12 -6 1 7 -8 10 -10 23
-4 39 12 32 -4 86 -28 102 -11 6 -20 14 -20 18 0 3 92 68 205 144 l205 139 0
88 c0 48 -4 88 -8 88 -7 0 -307 -89 -672 -200 -52 -16 -223 -67 -380 -115
-157 -47 -316 -95 -355 -107 -38 -12 -79 -23 -90 -24 -11 -1 -20 -3 -20 -4 0
-1 -8 -3 -17 -6 -10 -2 -26 -6 -35 -8 -10 -3 -19 -5 -20 -6 -2 -2 -7 -4 -13
-5 -5 -1 -11 -3 -12 -5 -10 -7 -37 -6 -32 1 3 5 9 7 14 4 5 -3 11 -1 15 5 4 6
10 8 15 5 4 -3 13 2 20 10 6 7 19 11 27 8 12 -5 14 -3 8 7 -5 8 -4 11 2 7 11
-7 28 20 24 36 -1 5 3 6 9 2 5 -3 10 -2 10 4 0 5 -5 12 -10 14 -6 3 -5 4 2 3
7 -2 12 -11 11 -21 -1 -12 2 -14 10 -6 7 7 7 14 -1 24 -7 8 -9 17 -5 21 4 4
-1 4 -12 1 -12 -4 -15 -3 -9 2 6 4 10 15 9 24 -2 9 3 16 11 16 10 0 11 -4 3
-14 -8 -9 -8 -13 -1 -13 6 0 13 -8 15 -17 3 -10 5 -4 4 12 -1 18 3 29 10 28
15 -3 11 17 -9 46 -10 13 -15 28 -12 32 2 4 0 10 -6 14 -6 4 -4 14 5 29 8 12
12 26 8 29 -3 4 -1 7 6 7 7 0 9 5 6 10 -3 6 -2 10 4 10 5 0 8 14 6 32 -3 17 0
38 6 45 7 7 8 13 4 13 -4 0 -2 6 4 13 6 8 8 16 5 20 -3 3 2 4 12 3 10 -2 20
-9 22 -17 2 -9 1 -10 -5 -3 -6 9 -12 7 -23 -4 -13 -14 -12 -15 5 -9 18 6 18 6
3 -6 -15 -12 -15 -14 0 -25 15 -11 14 -11 -4 -3 -16 8 -21 7 -21 -4 0 -8 4
-12 8 -10 12 8 39 -6 33 -17 -4 -6 -10 -5 -15 3 -4 7 -11 10 -16 6 -4 -5 -1
-12 7 -17 18 -11 41 6 33 26 -4 10 0 12 13 8 17 -6 17 -5 -1 9 -17 14 -18 16
-3 17 9 0 20 5 24 11 4 8 -1 9 -16 4 -15 -5 -20 -4 -16 4 9 14 -12 53 -24 46
-6 -3 -7 1 -4 9 3 9 10 16 15 16 4 0 6 7 3 15 -4 8 -1 15 5 15 6 0 10 3 10 8
-1 4 0 9 1 12 1 3 3 17 4 31 4 44 14 58 36 54 11 -2 24 -6 29 -9 4 -3 6 6 3
19 -5 27 7 32 27 13 10 -11 11 -10 6 3 -4 12 21 28 108 71 l114 56 33 113 c18
63 43 144 55 182 l22 67 -67 -2 c-37 -2 -66 -6 -63 -10 2 -5 -8 -8 -24 -8
l-28 1 25 20 c14 12 18 20 10 19 -28 -4 -41 0 -35 10 4 6 11 7 17 4 6 -4 9 -3
6 2 -7 10 17 35 26 28 3 -2 4 -1 1 3 -3 3 3 16 12 27 18 21 18 21 -4 2 -13
-11 -23 -14 -23 -9 0 6 7 16 15 23 12 10 13 16 4 27 -9 11 -9 12 3 8 20 -8 31
21 18 44 -14 27 2 35 17 9 l14 -23 -7 24 c-4 14 -2 21 4 17 5 -3 16 2 23 12
12 15 12 16 -2 5 -9 -7 -19 -10 -22 -6 -7 7 33 39 45 36 3 -1 5 9 3 23 -2 18
5 28 22 38 l25 13 -31 0 c-25 0 -31 -4 -27 -16 3 -9 -2 -6 -10 7 -9 12 -22 22
-28 22 -6 0 -4 -5 4 -10 13 -9 13 -11 0 -20 -13 -9 -13 -10 0 -10 13 0 13 -1
0 -10 -13 -8 -13 -10 -1 -10 11 0 10 -4 -5 -16 -10 -8 -13 -13 -7 -9 9 4 11 1
7 -10 -6 -14 -8 -14 -21 2 -13 16 -13 16 -3 -6 10 -18 9 -22 -1 -16 -8 6 -10
4 -4 -5 5 -8 4 -11 -3 -6 -7 4 -9 -3 -6 -21 3 -18 1 -23 -4 -15 -7 11 -10 10
-15 -3 -5 -11 -3 -14 6 -9 8 6 8 3 -1 -9 -8 -9 -10 -22 -6 -29 6 -11 5 -11 -8
0 -11 9 -18 10 -23 2 -4 -6 -1 -9 5 -8 7 2 14 -5 15 -14 2 -10 -1 -18 -5 -18
-5 0 -7 -9 -5 -19 2 -11 -3 -26 -12 -33 -14 -11 -15 -10 -8 12 7 23 7 24 -11
10 -13 -10 -12 -7 4 11 22 26 30 45 13 35 -5 -4 -8 2 -6 11 2 10 4 21 4 26 1
4 7 7 15 7 9 0 13 7 11 20 -2 11 0 20 5 20 4 0 7 8 5 18 -3 21 12 52 36 73 15
12 16 18 6 29 -10 10 -9 11 2 5 11 -6 13 -4 8 9 -4 10 -1 19 8 22 8 4 12 10
10 15 -3 5 3 16 14 26 11 9 17 21 14 26 -3 5 0 13 7 17 7 4 15 30 17 57 3 40
0 53 -17 68 -11 10 -20 30 -20 44 -1 33 -68 106 -117 126 -47 20 -93 19 -123
-2z m241 -466 c-21 -20 -22 -20 -13 -2 5 11 8 29 6 39 -2 18 -2 18 14 2 15
-15 15 -18 -7 -39z m-59 -109 c-7 -7 -12 -8 -12 -2 0 14 12 26 19 19 2 -3 -1
-11 -7 -17z m-77 -127 c0 -6 6 -15 13 -20 11 -7 10 -9 -3 -15 -9 -3 -14 -9
-11 -14 2 -4 -10 -8 -29 -8 -22 0 -31 4 -28 13 3 7 9 13 15 13 5 0 7 4 3 9 -3
5 -1 12 5 16 6 4 8 10 5 15 -3 4 3 7 12 6 10 -2 18 -8 18 -15z m-1098 -58 c-4
-3 0 -14 9 -24 13 -15 14 -21 3 -41 -7 -13 -14 -29 -15 -36 -1 -8 -6 -21 -10
-30 -8 -19 -11 -28 -13 -41 -2 -13 -49 -19 -60 -8 -8 8 -11 7 -11 -2 0 -7 -6
-11 -15 -8 -8 4 -17 2 -21 -4 -4 -6 -14 -3 -27 8 -18 16 -20 16 -14 1 4 -11 1
-15 -11 -13 -9 1 -22 -2 -28 -7 -7 -5 -16 -8 -20 -7 -5 1 -11 0 -14 -1 -3 -1
-19 -3 -37 -5 l-32 -3 32 35 c17 19 33 30 35 24 2 -5 10 -7 18 -4 13 5 13 7 2
15 -10 8 -10 9 2 5 8 -2 25 4 38 14 13 10 31 16 42 14 10 -2 21 3 25 12 4 13
8 14 17 5 18 -18 32 -14 17 5 -8 9 -9 14 -3 10 7 -4 14 0 18 8 3 8 12 12 20 9
10 -4 14 0 12 13 -3 15 30 62 43 63 2 0 1 -3 -2 -7z m-1552 -330 c-2 -10 -4
-18 -5 -18 -1 0 -3 -9 -5 -19 -2 -11 -11 -24 -21 -29 -12 -7 -13 -11 -4 -17 9
-5 8 -9 -3 -13 -18 -7 -17 14 1 35 6 8 10 17 7 20 -3 3 1 11 9 17 8 7 12 19 9
27 -3 8 -1 14 5 14 6 0 9 -8 7 -17z m1957 -479 c-41 -127 -44 -168 -15 -234
21 -48 41 -69 87 -91 43 -21 60 -25 36 -8 -12 8 -10 9 9 7 30 -4 39 -24 14
-31 -10 -2 -94 -28 -188 -57 -93 -28 -177 -53 -185 -55 -8 -2 -127 -38 -265
-80 -137 -42 -366 -112 -508 -154 l-257 -78 -35 38 c-19 21 -51 49 -72 63 -39
25 -147 58 -157 48 -3 -3 -6 -1 -6 5 0 6 12 16 28 21 15 5 35 13 45 17 13 6
16 3 12 -11 -4 -12 -1 -11 6 4 7 12 16 23 21 23 4 1 17 3 28 4 11 1 22 4 25 5
3 1 11 3 18 4 6 1 11 8 9 15 -1 7 2 10 7 7 5 -3 14 1 20 8 7 9 23 13 39 10 15
-3 23 -2 19 2 -9 9 23 45 34 38 5 -3 9 0 9 6 0 7 7 10 15 6 8 -3 15 -2 15 3 0
11 129 73 157 75 11 0 19 4 17 7 -7 13 28 19 47 9 10 -6 19 -8 19 -4 0 3 7 1
15 -6 8 -7 15 -9 15 -5 0 4 6 3 13 -2 11 -8 29 -10 42 -3 13 7 31 5 43 -3 8
-6 12 -5 12 4 0 12 2 12 9 0 6 -9 10 -10 16 -2 5 9 10 9 21 0 11 -9 17 -9 29
1 8 7 15 9 15 5 0 -4 6 -3 13 2 6 6 20 9 29 8 10 -2 20 1 24 6 3 5 10 7 15 4
5 -4 9 -1 9 6 0 6 8 9 19 6 12 -3 22 1 25 10 3 8 10 11 16 8 5 -3 10 -2 10 4
0 5 9 9 19 8 11 0 17 -5 15 -9 -3 -4 5 -6 18 -4 13 2 29 -2 37 -8 8 -6 34 -11
57 -12 34 0 45 4 50 18 3 10 8 17 12 16 24 -5 82 41 86 67 1 7 8 20 15 29 7 9
10 16 5 16 -5 0 0 7 10 15 11 8 15 15 8 15 -6 0 -9 7 -5 16 3 8 11 13 19 10 7
-3 15 -1 18 5 2 5 3 4 2 -3 -2 -7 -8 -12 -14 -11 -15 3 -11 -35 4 -41 8 -3 10
3 6 16 -3 14 -1 19 6 15 6 -5 9 2 7 19 -1 15 3 28 12 31 12 5 12 7 1 14 -20
13 -29 11 -26 -7 2 -10 -2 -19 -8 -21 -8 -3 -11 13 -9 49 5 76 10 93 29 92 9
-1 15 3 13 9 -3 9 203 119 211 112 1 -1 -15 -56 -36 -121z m435 91 c0 -8 -4
-12 -9 -9 -5 3 -6 10 -3 15 9 13 12 11 12 -6z m-63 -236 c-6 -11 -24 -2 -24
11 0 5 7 7 15 4 8 -4 12 -10 9 -15z m-1966 -73 l3 -54 -58 -20 c-32 -11 -96
-34 -142 -51 -46 -16 -88 -28 -93 -25 -4 3 -8 -1 -9 -8 0 -10 -2 -10 -6 1 -4
11 -7 11 -13 0 -11 -17 -37 -20 -37 -3 0 10 4 11 13 3 11 -9 12 -4 9 20 -2 18
2 37 10 45 8 7 11 17 7 22 -4 5 1 2 11 -5 18 -14 22 -5 8 18 -7 11 -3 20 11
33 11 10 24 15 29 13 4 -3 10 -1 14 5 9 14 27 2 19 -13 -3 -7 4 -1 15 13 11
14 21 21 21 16 0 -5 6 -4 13 1 21 18 70 26 65 11 -3 -7 -18 -13 -34 -14 -16
-1 -31 -3 -34 -4 -3 -1 -9 -2 -13 -1 -5 1 -6 -3 -3 -8 9 -14 -18 -31 -43 -26
-14 2 -19 0 -15 -7 5 -7 2 -8 -6 -3 -8 5 -11 4 -6 -3 3 -6 1 -14 -5 -18 -7 -4
-9 -3 -5 4 3 6 1 14 -5 17 -7 5 -9 1 -7 -11 2 -11 9 -18 14 -17 6 1 15 -7 22
-18 13 -21 3 -26 -16 -7 -8 8 -15 8 -25 0 -8 -7 -16 -11 -18 -9 -2 1 -1 -2 3
-7 3 -5 4 -15 0 -24 -3 -10 2 -8 16 6 12 12 28 19 36 16 17 -6 31 12 16 21 -5
3 -10 11 -10 16 0 6 5 7 10 4 6 -4 10 -3 9 2 -3 20 2 25 15 14 11 -9 16 -9 22
0 4 8 3 9 -4 5 -13 -7 -17 6 -6 17 11 11 45 -13 38 -26 -4 -7 -3 -8 2 -4 5 5
9 14 9 20 0 5 6 12 14 15 9 3 11 0 6 -9 -6 -11 -5 -12 6 -1 16 15 33 16 23 0
-4 -7 -3 -8 4 -4 9 5 9 13 2 27 -11 19 1 58 18 60 23 2 56 10 61 14 10 10 15
-8 19 -59z m-120 -5 c7 -1 10 -6 7 -11 -5 -8 -11 -8 -20 0 -9 8 -14 7 -18 -5
-4 -8 -13 -12 -22 -9 -21 8 -1 33 23 29 9 -2 23 -4 30 -4z m-108 -35 c0 -2 -8
-10 -17 -17 -16 -13 -17 -12 -4 4 13 16 21 21 21 13z m-40 -60 c0 -2 -7 -7
-16 -10 -8 -3 -12 -2 -9 4 6 10 25 14 25 6z m2040 -16 c0 -5 -5 -10 -11 -10
-5 0 -7 5 -4 10 3 6 8 10 11 10 2 0 4 -4 4 -10z m-2944 -182 c-8 -24 -26 -80
-41 -125 l-27 -81 -101 -37 c-341 -124 -347 -126 -347 -105 0 11 5 20 11 20 5
0 7 -4 4 -10 -4 -6 1 -7 11 -3 14 5 14 7 -5 18 -12 6 -19 14 -15 18 4 4 14 1
22 -6 13 -9 14 -9 8 1 -5 8 -1 12 11 13 17 0 16 1 -1 8 -11 4 -20 15 -22 25
-2 13 3 16 19 12 12 -3 16 -3 10 0 -14 6 -18 25 -5 23 22 -4 32 2 25 14 -13
21 -12 39 2 34 9 -4 11 1 7 16 l-5 22 19 -20 c10 -12 15 -15 10 -7 -7 9 -5 16
3 21 10 6 9 10 -4 15 -9 3 -13 11 -9 17 4 8 9 7 16 -2 7 -11 8 -9 4 5 -5 13
-2 17 9 13 8 -4 16 -3 19 1 3 4 -4 8 -14 9 -11 1 -22 -3 -25 -8 -4 -5 -11 -6
-17 -3 -7 5 -8 2 -3 -5 6 -11 3 -11 -16 -1 l-23 13 19 -29 c18 -29 18 -29 -1
-14 -15 11 -16 11 -6 0 6 -8 12 -19 12 -25 0 -5 -5 -3 -11 5 -9 13 -10 12 -5
-3 3 -10 2 -16 -2 -13 -5 3 -9 -1 -10 -9 -1 -8 -3 -22 -4 -30 -1 -12 -4 -12
-17 -2 -14 11 -15 10 -1 -7 8 -11 10 -17 3 -13 -8 5 -11 1 -8 -13 2 -11 0 -18
-5 -15 -5 3 -7 -4 -5 -15 2 -11 0 -18 -5 -15 -4 3 -7 -3 -5 -12 1 -10 0 -22
-4 -28 -3 -5 -6 -17 -6 -25 0 -8 -8 -14 -17 -14 -10 1 -18 -2 -18 -7 0 -5 -8
-9 -17 -9 -15 0 -16 2 -3 10 8 5 11 10 6 10 -5 0 -3 7 4 15 7 8 16 13 20 10 5
-3 11 -1 15 5 3 5 0 10 -7 10 -8 0 -9 3 -3 8 6 4 10 14 10 22 -1 8 3 21 8 28
5 6 6 12 2 12 -4 0 -1 7 6 17 8 9 13 18 12 20 -9 11 -1 24 12 19 8 -3 15 -1
15 4 0 6 -4 10 -9 10 -12 0 -8 24 8 43 7 9 14 24 15 33 2 10 11 19 22 21 31 6
38 8 49 14 6 4 87 27 180 53 94 26 181 51 195 56 39 13 40 12 26 -32z m409 2
c-2 -11 1 -20 7 -20 18 0 3 -10 -22 -15 -22 -4 -22 -4 -5 15 10 11 15 20 11
20 -4 0 -4 5 -1 10 10 16 14 12 10 -10z m3375 -79 c-5 -11 -10 -28 -10 -37 0
-10 -7 -25 -15 -34 -8 -9 -21 -34 -29 -56 l-13 -39 0 45 c0 25 -2 52 -4 62 -3
10 11 27 36 46 48 37 48 37 35 13z m-599 -125 l-205 -103 -41 26 -42 26 46 17
c94 34 417 136 431 137 8 0 -77 -46 -189 -103z m-3610 67 c13 -16 12 -17 -3
-4 -10 7 -18 15 -18 17 0 8 8 3 21 -13z m-31 -83 c0 -5 -2 -10 -4 -10 -3 0 -8
5 -11 10 -3 6 -1 10 4 10 6 0 11 -4 11 -10z m5843 -24 c4 -10 1 -13 -8 -9 -8
3 -12 9 -9 14 7 12 11 11 17 -5z m-38 -36 c-3 -5 0 -10 7 -10 14 -1 -20 -23
-39 -26 -19 -3 -11 19 12 33 25 15 28 16 20 3z m-2687 -75 c-25 -24 -58 -71
-74 -104 -16 -34 -37 -64 -47 -67 -20 -6 -46 20 -47 47 0 19 -51 69 -71 69
-10 1 254 94 280 99 2 1 -16 -19 -41 -44z m1987 -15 c-3 -5 -12 -10 -18 -10
-7 0 -6 4 3 10 19 12 23 12 15 0z m-4014 -34 c-7 -8 -22 -16 -34 -18 -24 -3
-66 -76 -67 -114 0 -18 -25 -28 -207 -83 -115 -35 -228 -69 -253 -76 -25 -7
-90 -27 -144 -44 -55 -17 -101 -29 -103 -27 -3 2 5 7 18 11 12 4 87 39 167 77
80 39 151 71 156 72 6 1 21 8 34 14 12 7 26 10 31 8 5 -3 12 1 15 10 3 8 10
13 15 10 5 -4 11 -2 13 3 3 11 361 181 367 175 2 -2 -2 -10 -8 -18z m4002 3
c-6 -6 -9 -18 -6 -25 5 -13 -8 -19 -30 -15 -5 1 -5 -3 -2 -9 4 -6 13 -9 20 -7
8 4 12 -3 11 -16 -1 -12 2 -27 6 -34 5 -6 5 -14 -2 -18 -5 -3 -10 2 -10 12 -1
17 -1 17 -14 0 -8 -10 -24 -20 -37 -22 -61 -13 -69 -13 -69 -4 0 5 4 9 8 9 5
0 15 11 22 25 7 13 17 22 22 19 4 -3 8 0 8 6 0 7 7 10 18 6 16 -6 16 -5 0 7
-15 12 -14 15 13 36 16 13 26 27 23 32 -3 5 3 9 12 9 13 0 15 -3 7 -11z m-984
-50 c-11 -7 -11 -9 1 -9 9 0 11 -3 5 -8 -5 -4 -11 -16 -12 -27 -5 -52 -21 -92
-40 -99 -12 -5 -13 -3 -6 6 6 7 9 21 8 30 -2 12 2 15 13 10 15 -5 16 -4 2 13
-9 12 -10 16 -2 11 9 -6 11 -1 8 17 -2 14 -1 28 2 32 7 6 8 10 11 36 0 5 6 7
12 3 8 -4 7 -9 -2 -15z m-447 -56 c-11 -26 -23 -64 -27 -83 -8 -41 -47 -162
-50 -158 -4 5 -17 80 -19 111 0 15 -5 27 -9 27 -5 0 -6 4 -2 9 3 5 1 12 -5 16
-25 16 -7 44 58 87 37 25 69 44 71 42 2 -2 -5 -25 -17 -51z m-972 19 c-19 -26
-60 -164 -60 -205 0 -12 -32 -33 -110 -72 -60 -29 -110 -51 -110 -48 0 3 -8
-1 -17 -8 -15 -12 -16 -12 -8 1 5 8 10 33 12 55 1 22 5 53 8 68 5 32 -12 72
-45 102 l-21 19 173 57 c95 31 179 57 186 58 8 1 5 -9 -8 -27z m2257 -68 c-3
-3 -12 -4 -19 -1 -8 3 -5 6 6 6 11 1 17 -2 13 -5z m-922 -168 c0 -14 -4 -22
-11 -19 -7 2 -11 -5 -10 -18 0 -12 -6 -24 -14 -26 -13 -4 -13 -3 0 6 13 10 13
11 0 11 -13 0 -13 1 0 10 8 5 12 10 7 10 -4 0 -1 10 8 23 8 13 13 27 10 30 -3
4 -2 5 2 2 3 -3 7 -16 8 -29z m1224 -133 c11 -16 28 -36 38 -45 19 -21 14 -22
-58 -7 -30 6 -63 12 -74 13 -11 2 -33 9 -50 16 l-30 12 60 18 c81 25 90 24
114 -7z m-3812 -28 c-9 -8 -22 -14 -29 -13 -7 2 -12 -2 -11 -8 2 -11 -81 -104
-93 -104 -4 0 0 8 9 18 10 10 14 22 10 27 -5 4 -2 4 6 0 11 -6 13 -4 8 9 -4
10 -1 19 9 23 8 3 13 12 10 19 -3 9 0 11 11 7 11 -4 14 -3 9 5 -7 12 7 21 38
26 8 1 19 5 22 9 4 4 9 5 12 2 2 -2 -3 -11 -11 -20z m3399 -110 c-15 -24 -32
-43 -39 -41 -60 17 -127 41 -127 47 0 10 185 57 188 47 2 -4 -8 -28 -22 -53z
m994 -140 c0 -12 -19 -12 -23 0 -4 9 -1 12 9 8 7 -3 14 -7 14 -8z m-25 -152
c-11 -10 -28 -27 -37 -38 -10 -11 -18 -16 -18 -12 0 10 58 67 68 67 4 0 -3 -8
-13 -17z m-98 -104 c-8 -13 -13 -15 -19 -6 -4 7 -8 7 -8 2 0 -6 -9 -16 -19
-22 -15 -9 -23 -9 -37 3 -14 10 -15 13 -3 9 9 -3 22 1 29 9 7 9 16 14 20 11 5
-3 11 -2 14 3 3 5 12 9 20 9 11 0 12 -4 3 -18z m-1025 -53 c6 4 5 -2 -1 -15
-15 -27 -16 -27 -17 7 -1 15 1 21 3 14 3 -6 9 -9 15 -6z m-1962 -116 c0 -5 -4
-10 -10 -10 -5 0 -10 5 -10 10 0 6 5 10 10 10 6 0 10 -4 10 -10z m-11 -52 c14
5 14 3 2 -11 -7 -9 -17 -15 -21 -12 -4 3 -13 -1 -19 -9 -9 -11 -9 -15 0 -18 7
-2 5 -9 -7 -18 -10 -8 -15 -10 -11 -3 4 6 2 13 -3 15 -6 2 -1 13 10 26 12 12
18 28 14 35 -5 9 -4 9 6 0 7 -6 20 -9 29 -5z m-79 -149 c0 -14 -17 -10 -23 5
-4 10 -1 13 9 9 7 -3 14 -9 14 -14z m-35 -39 c-4 -6 -10 -8 -15 -5 -4 3 -13
-2 -20 -10 -7 -8 -18 -15 -24 -15 -15 1 36 40 52 40 7 0 10 -5 7 -10z m-75
-62 c0 -4 -5 -8 -11 -8 -6 0 -8 -7 -5 -16 3 -8 2 -12 -3 -9 -14 8 -9 42 6 42
7 0 13 -4 13 -9z m-50 -28 c-8 -5 -15 -15 -15 -21 0 -7 -8 -13 -17 -15 -10 -1
-18 0 -18 2 0 9 55 52 60 48 2 -3 -2 -9 -10 -14z m-73 -47 c-2 -2 -14 -6 -27
-8 -12 -2 -28 -9 -36 -16 -8 -6 -14 -8 -14 -4 0 4 -7 2 -15 -5 -8 -7 -13 -16
-10 -20 3 -4 -1 -13 -8 -18 -9 -8 -16 -6 -26 10 -8 13 -8 18 -1 13 14 -9 52
24 43 38 -3 5 -1 7 5 3 6 -3 13 -2 17 3 3 6 12 8 19 5 8 -3 17 -1 20 5 4 6 13
8 22 4 8 -3 13 -7 11 -10z m-162 -66 c3 -4 2 -5 -2 -2 -3 3 -12 0 -19 -6 -8
-7 -14 -7 -19 1 -3 6 -11 7 -17 4 -6 -4 -8 -3 -5 3 7 11 53 11 62 0z m-1230
-67 c-6 -9 -9 -9 -16 1 -10 17 0 34 13 21 6 -6 7 -16 3 -22z m-222 -407 c-3
-7 -9 -13 -13 -13 -4 0 -12 6 -18 13 -9 10 -6 13 12 13 16 0 22 -5 19 -13z"/>
<path d="M5380 5455 c-7 -8 -9 -15 -5 -15 4 0 2 -6 -4 -14 -10 -11 -9 -14 1
-12 27 4 39 17 29 30 -6 7 -8 16 -4 19 3 4 4 7 1 7 -3 0 -11 -7 -18 -15z m15
-14 c3 -5 2 -12 -3 -15 -5 -3 -9 1 -9 9 0 17 3 19 12 6z"/>
<path d="M4282 5373 c-10 -4 -8 -9 5 -19 13 -10 14 -13 3 -11 -8 2 -12 2 -8 0
4 -2 4 -11 1 -19 -3 -7 -10 -11 -16 -7 -5 3 -7 1 -3 -5 3 -6 2 -13 -4 -17 -5
-3 -10 -1 -10 4 0 6 -5 11 -12 11 -6 0 -8 -3 -5 -7 4 -3 2 -12 -4 -20 -10 -11
-14 -10 -25 4 -11 14 -13 15 -9 2 5 -12 0 -16 -22 -14 -16 1 -41 -8 -61 -22
-18 -13 -41 -26 -52 -28 -28 -5 -40 -14 -39 -28 0 -9 2 -9 6 1 2 6 9 12 14 12
6 0 7 -6 3 -12 -6 -10 -5 -10 8 -1 8 7 18 10 21 6 4 -3 13 -1 20 5 8 7 18 8
22 4 5 -4 5 -2 2 4 -10 18 20 25 34 8 9 -11 15 -12 25 -3 8 6 14 8 14 3 0 -4
5 -3 12 4 9 9 15 9 27 -1 12 -10 13 -9 7 2 -7 10 -3 12 13 6 20 -6 24 1 20 31
0 4 5 11 13 15 10 7 10 9 0 9 -7 0 -10 5 -7 10 4 6 11 8 16 5 5 -3 6 1 3 9 -3
9 -2 16 4 16 16 0 22 28 9 38 -7 5 -18 7 -25 5z m-15 -99 c0 -7 -5 -10 -10 -7
-6 4 -8 0 -5 -9 5 -11 0 -14 -18 -12 -13 1 -26 -2 -30 -7 -3 -5 -9 -7 -14 -4
-5 3 -12 0 -15 -5 -5 -8 -13 -6 -24 5 -16 14 -20 14 -44 -5 -14 -11 -29 -20
-33 -20 -4 0 10 13 31 28 28 22 47 28 76 27 22 -1 44 3 49 10 13 16 37 15 37
-1z"/>
<path d="M4229 5263 c-13 -16 -12 -17 4 -4 16 13 21 21 13 21 -2 0 -10 -8 -17
-17z"/>
<path d="M4152 5243 c7 -9 14 -10 23 -3 6 5 14 7 17 4 3 -3 8 -1 11 3 3 5 -10
9 -28 9 -27 0 -32 -3 -23 -13z"/>
<path d="M4570 4611 c0 -7 -5 -9 -12 -5 -6 4 -8 3 -5 -3 4 -6 0 -16 -9 -23 -8
-7 -13 -19 -10 -27 3 -8 1 -11 -5 -8 -5 4 -7 15 -4 26 4 10 2 19 -3 19 -5 0
-9 -6 -10 -12 -10 -79 -9 -86 4 -81 8 3 14 11 14 19 0 8 7 11 18 8 10 -4 13
-2 7 3 -6 4 -10 14 -9 21 1 6 2 17 3 23 0 5 7 7 14 3 6 -4 9 -4 5 1 -4 4 -3
14 4 22 6 7 8 16 4 20 -3 3 -6 1 -6 -6z m-47 -86 c-7 -21 -12 -19 -10 4 0 11
5 18 9 15 4 -3 5 -11 1 -19z"/>
<path d="M4478 4383 c10 -4 8 -9 -7 -20 -12 -8 -19 -19 -16 -24 4 -5 -11 -27
-32 -48 -37 -38 -41 -41 -64 -41 -8 0 -8 -4 1 -15 10 -12 6 -14 -24 -11 -23 3
-34 0 -29 -7 4 -7 0 -8 -13 -3 -10 4 -24 9 -30 10 -7 1 -20 8 -30 16 -11 9
-15 10 -10 3 4 -7 2 -13 -3 -13 -6 0 -11 6 -11 13 0 9 -2 9 -9 -1 -6 -10 -10
-10 -21 2 -13 16 -30 13 -30 -6 0 -6 8 -7 18 -3 14 5 15 4 4 -7 -11 -11 -16
-10 -26 5 -12 16 -14 16 -20 2 -3 -9 -10 -13 -16 -10 -5 3 -16 3 -22 -2 -7 -4
-16 -8 -20 -9 -5 -1 -10 -3 -13 -4 -3 -1 -13 -3 -22 -4 -10 -1 -24 -5 -30 -9
-7 -5 -13 -5 -13 -1 0 4 -8 -1 -19 -10 -17 -16 -19 -16 -25 0 -4 11 -10 13
-19 7 -10 -8 -32 -10 -39 -3 -10 7 -39 7 -44 -1 -3 -5 -9 -7 -13 -5 -4 3 -13
-5 -20 -17 -11 -18 -11 -20 0 -9 7 6 17 12 22 12 4 0 5 -6 1 -12 -5 -8 -1 -7
10 1 16 13 17 13 14 -4 -1 -10 4 -20 12 -22 11 -3 11 -2 3 4 -7 5 -9 14 -4 22
7 10 11 8 17 -10 4 -13 7 -28 6 -34 -1 -5 4 -2 11 8 8 9 17 17 20 17 4 0 4 -8
1 -17 -4 -11 -2 -14 3 -8 11 15 55 17 47 3 -4 -7 -2 -8 5 -4 16 10 2 29 -16
22 -11 -5 -13 -2 -9 10 3 8 6 18 6 21 0 2 7 -3 16 -11 8 -9 20 -14 25 -11 8 6
13 -8 10 -27 0 -5 3 -8 9 -8 5 0 10 7 10 15 0 8 5 15 11 15 6 0 7 -6 2 -12 -4
-8 4 -6 18 3 18 12 30 14 43 7 10 -5 20 -7 23 -4 4 3 1 6 -5 6 -6 0 -9 7 -5
16 5 13 8 13 15 2 6 -8 7 -5 2 12 -6 22 -5 23 10 11 9 -8 19 -11 23 -8 3 4 12
2 20 -5 11 -9 13 -8 11 3 -2 8 3 13 10 11 8 -1 11 2 8 7 -7 11 5 20 35 26 14
3 19 0 16 -9 -3 -8 6 -12 32 -12 24 0 35 -4 33 -13 -1 -7 2 -10 8 -6 5 3 10
-2 10 -12 1 -15 3 -14 13 5 7 12 17 19 21 15 5 -4 4 2 -3 14 -7 14 -8 24 -1
28 5 3 10 1 10 -5 0 -7 6 -10 14 -7 21 8 28 -4 13 -22 -10 -14 -10 -14 4 -4 9
7 19 10 22 6 4 -3 7 -3 7 2 0 4 -8 13 -17 20 -15 11 -14 13 10 13 15 0 24 -4
21 -9 -9 -16 3 -10 17 8 10 11 10 14 2 9 -7 -4 -13 -2 -13 3 0 6 6 11 13 11 7
0 8 3 2 8 -13 9 -17 32 -6 32 5 0 11 -5 13 -12 3 -7 7 -5 11 6 4 10 3 15 -3
11 -9 -6 -14 8 -11 28 0 4 -4 7 -10 7 -6 0 -8 -7 -4 -17 5 -15 4 -16 -6 -5 -9
8 -10 15 -3 22 12 12 47 2 39 -10 -7 -11 22 -6 32 5 4 4 3 5 -4 1 -18 -10 -26
13 -11 31 7 9 8 14 2 10 -7 -4 -17 0 -24 8 -7 8 -18 15 -24 14 -6 0 -5 -3 2
-6z m27 -31 c-3 -3 -15 -6 -27 -7 -20 -2 -20 -1 -3 11 17 13 43 9 30 -4z m-39
-74 c-2 -35 -15 -51 -31 -38 -9 8 -14 6 -19 -6 -5 -13 -9 -15 -18 -6 -9 9 -4
20 22 47 36 37 48 38 46 3z m-294 -62 c33 21 60 6 32 -17 -20 -17 -45 -20 -59
-9 -11 9 -37 -1 -36 -14 3 -21 -1 -27 -14 -23 -8 4 -17 2 -20 -3 -4 -7 -45 -7
-65 0 -3 2 -8 2 -12 2 -8 -2 -32 28 -24 29 13 3 26 7 31 9 3 1 14 4 25 5 11 1
22 4 25 5 3 1 8 3 13 4 4 1 13 5 20 9 7 5 12 5 11 0 -4 -23 3 -25 17 -5 12 18
19 20 29 12 8 -7 20 -8 27 -4z m195 -10 c3 -3 2 -10 -2 -16 -5 -8 -12 -7 -24
4 -10 9 -21 13 -26 9 -4 -5 -5 -3 -1 4 6 11 42 10 53 -1z m-479 -26 c8 -7 29
-5 42 4 13 9 13 9 2 -6 -8 -10 -9 -19 -3 -22 5 -3 12 -1 14 4 3 6 4 5 3 -1 -4
-20 -46 -18 -57 2 -5 11 -17 16 -29 14 -11 -2 -18 0 -15 5 4 7 34 7 43 0z"/>
<path d="M4427 4272 c-15 -15 -27 -32 -27 -38 0 -5 5 -1 11 9 8 14 14 16 25 6
8 -6 14 -10 15 -8 2 8 6 59 4 59 -1 0 -13 -13 -28 -28z m20 -7 c0 -8 -4 -12
-9 -9 -5 3 -6 10 -3 15 9 13 12 11 12 -6z"/>
<path d="M4124 4209 c-4 -7 -3 -9 4 -5 6 3 13 2 17 -4 7 -12 41 -8 56 7 14 14
-8 13 -29 -1 -7 -4 -19 -3 -27 4 -10 8 -15 8 -21 -1z"/>
<path d="M4055 4190 c-3 -5 -14 -7 -25 -5 -11 2 -22 -1 -25 -6 -4 -5 -11 -6
-17 -3 -7 4 -8 2 -4 -5 4 -6 11 -9 16 -6 5 3 12 1 15 -5 5 -8 11 -7 21 1 11 9
14 8 14 -2 0 -10 3 -10 8 -3 4 6 15 10 24 8 22 -3 33 12 16 23 -19 11 -37 12
-43 3z m39 -11 c3 -3 -5 -5 -19 -5 -13 0 -22 3 -19 7 4 8 30 6 38 -2z m-54 -5
c0 -8 -19 -13 -24 -6 -3 5 1 9 9 9 8 0 15 -2 15 -3z"/>
<path d="M3733 4198 c-3 -7 -1 -8 5 -4 7 4 12 1 12 -6 0 -9 3 -9 10 2 9 13 14
8 11 -12 0 -3 6 -5 15 -4 16 2 20 20 4 22 -5 1 -11 2 -12 4 -10 8 -39 6 -45
-2z"/>
<path d="M3462 4095 c-4 -5 -7 -14 -7 -20 0 -5 -12 -10 -27 -10 -14 0 -38 -11
-52 -24 -14 -14 -26 -21 -26 -17 0 5 -6 4 -12 -1 -7 -6 -21 -9 -31 -8 -18 3
-41 -27 -30 -39 3 -3 0 -6 -7 -6 -7 0 -10 -3 -7 -6 4 -4 13 -1 22 6 13 11 14
10 9 -4 -3 -9 -1 -16 6 -16 6 0 8 5 5 10 -11 17 17 11 32 -7 13 -16 13 -16 4
4 -17 33 -12 41 8 15 13 -15 21 -18 24 -10 3 10 7 10 18 1 10 -8 19 -9 29 -2
12 8 11 9 -4 7 -10 -2 -21 2 -23 8 -2 7 6 11 19 10 14 -1 22 4 20 12 -1 8 6
11 23 8 13 -3 28 0 31 6 4 6 2 8 -4 4 -6 -3 -13 -2 -17 4 -3 5 1 10 9 10 15 0
20 11 17 37 -1 6 3 14 9 18 5 3 10 10 10 15 0 12 -40 8 -48 -5z m21 -17 c-12
-14 -13 -18 -2 -18 8 0 4 -7 -9 -16 -12 -8 -20 -19 -17 -24 3 -4 -3 -7 -13 -6
-9 0 -16 -4 -15 -11 1 -6 -5 -10 -15 -8 -9 1 -24 -4 -33 -11 -14 -13 -18 -12
-29 1 -7 8 -17 12 -23 8 -20 -12 -45 -10 -40 3 2 7 13 11 24 9 10 -2 21 1 24
6 4 5 10 7 14 4 5 -2 18 6 31 19 14 16 30 23 45 20 21 -4 37 7 41 29 3 13 4
14 19 14 13 0 13 -3 -2 -19z"/>
<path d="M3455 4050 c-3 -6 -17 -8 -30 -6 -15 3 -31 -4 -45 -20 -13 -13 -28
-20 -34 -17 -6 4 -5 -1 3 -10 12 -16 16 -16 31 -2 9 8 19 13 21 11 2 -3 20 9
39 25 19 15 32 29 28 29 -4 0 -10 -5 -13 -10z m-37 -27 c-6 -7 -13 -11 -16 -8
-3 3 -15 -3 -26 -12 -18 -15 -18 -14 2 8 23 27 62 38 40 12z"/>
<path d="M3096 4423 c-4 -5 -16 -9 -27 -9 -34 -2 -37 -4 -43 -19 -3 -9 3 -19
16 -26 12 -7 18 -7 14 -1 -3 6 0 13 6 16 7 3 2 3 -11 0 -21 -6 -22 -4 -10 9
15 17 30 17 41 2 5 -6 8 -5 8 3 0 7 4 11 8 8 5 -3 9 1 9 9 0 17 -1 18 -11 8z"/>
<path d="M2793 4249 c-2 -23 3 -25 10 -4 4 8 3 16 -1 19 -4 3 -9 -4 -9 -15z"/>
<path d="M2830 4238 c0 -4 4 -8 9 -8 6 0 12 4 15 8 3 5 -1 9 -9 9 -8 0 -15 -4
-15 -9z"/>
<path d="M1460 3925 c-7 -9 -8 -15 -2 -15 5 0 12 7 16 15 3 8 4 15 2 15 -2 0
-9 -7 -16 -15z"/>
<path d="M1375 3720 c-2 -3 5 -7 16 -7 10 -1 19 2 19 6 0 9 -29 10 -35 1z"/>
<path d="M6539 3617 c7 -10 11 -18 7 -18 -3 -1 -9 -2 -13 -3 -20 -4 -51 -27
-57 -41 -4 -11 -2 -14 7 -8 6 4 19 8 28 8 17 0 59 32 59 44 0 3 -10 12 -22 20
-21 13 -22 13 -9 -2z m8 -35 c-20 -22 -53 -27 -36 -5 6 7 15 11 19 8 5 -3 11
-1 15 5 3 5 9 10 12 10 3 0 -1 -8 -10 -18z"/>
<path d="M3894 3294 c1 -7 6 -17 11 -21 4 -4 5 -3 1 4 -3 7 1 13 11 15 15 3
15 5 -3 10 -15 4 -21 1 -20 -8z"/>
<path d="M2851 3150 c-13 -11 -19 -20 -14 -20 6 0 18 9 28 20 23 25 17 25 -14
0z"/>
<path d="M7139 2673 c-13 -16 -12 -17 4 -4 16 13 21 21 13 21 -2 0 -10 -8 -17
-17z"/>
<path d="M5564 5851 c3 -4 -3 -16 -13 -25 -11 -10 -18 -25 -17 -33 3 -18 43
-25 53 -10 3 6 1 7 -5 3 -7 -4 -12 -1 -12 9 0 12 4 14 19 5 14 -7 22 -7 26 0
4 6 3 10 -2 9 -22 -4 -34 2 -27 14 6 10 4 10 -7 0 -7 -7 -18 -13 -23 -13 -6 1
-1 9 11 19 19 16 20 20 7 25 -8 3 -13 2 -10 -3z m-9 -50 c3 -5 2 -12 -3 -15
-5 -3 -9 1 -9 9 0 17 3 19 12 6z"/>
<path d="M5466 5673 c-6 -14 -5 -15 5 -6 7 7 10 15 7 18 -3 3 -9 -2 -12 -12z"/>
<path d="M4904 5644 c1 -9 9 -20 17 -24 10 -6 14 -1 15 18 1 15 -1 21 -3 14
-4 -9 -8 -10 -18 -2 -10 9 -13 7 -11 -6z"/>
<path d="M2963 5643 c9 -2 15 -9 11 -14 -3 -5 -11 -6 -17 -3 -8 4 -7 2 1 -7
11 -12 14 -12 22 1 11 18 4 30 -18 29 -15 -1 -15 -2 1 -6z"/>
<path d="M4876 5631 c-4 -6 -2 -11 3 -11 16 0 9 -23 -11 -38 -9 -7 -15 -21
-13 -32 2 -11 0 -22 -5 -25 -5 -3 -7 -12 -3 -20 6 -17 -8 -20 -24 -4 -7 7 -10
4 -9 -13 1 -13 -4 -30 -12 -40 -11 -13 -11 -17 0 -24 15 -10 42 -15 34 -7 -9
9 15 34 25 27 5 -3 8 0 7 8 -2 7 4 12 12 10 12 -3 13 -1 3 9 -15 15 -17 33 -3
24 6 -3 10 -1 10 5 0 7 -7 9 -15 6 -13 -5 -12 -1 2 18 10 13 21 22 25 20 9 -5
5 18 -6 35 -7 11 -5 13 7 8 9 -3 19 -1 23 6 4 7 3 9 -1 4 -5 -4 -16 5 -26 19
-10 16 -19 22 -23 15z m19 -61 c3 -6 -1 -13 -9 -16 -9 -3 -14 -10 -11 -14 3
-4 -3 -14 -12 -21 -15 -12 -16 -12 -8 1 6 8 10 23 11 33 1 9 2 19 3 22 2 9 20
5 26 -5z m-50 -90 c27 22 23 -8 -4 -34 -16 -15 -32 -23 -35 -18 -3 5 1 15 9
22 7 6 13 17 11 23 -1 7 -1 8 2 4 2 -4 10 -3 17 3z"/>
<path d="M4829 5453 l-24 -28 28 24 c25 23 32 31 24 31 -2 0 -14 -12 -28 -27z"/>
<path d="M2926 5582 c-11 -14 -14 -22 -8 -18 7 4 12 2 12 -3 0 -6 -6 -11 -12
-11 -10 0 -10 -2 0 -9 19 -12 17 -19 -12 -42 -17 -13 -23 -26 -20 -43 2 -13
-3 -29 -11 -36 -8 -7 -13 -16 -10 -20 3 -5 1 -11 -4 -15 -6 -3 -8 -12 -5 -19
3 -8 0 -17 -5 -21 -6 -3 -8 -11 -5 -17 4 -6 0 -15 -7 -20 -12 -8 -11 -9 1 -5
8 2 15 10 15 18 0 8 4 20 8 27 5 6 6 16 3 21 -3 4 5 18 19 31 13 12 21 29 18
36 -3 9 0 14 7 12 7 -2 15 3 18 11 3 10 0 12 -14 8 -17 -6 -17 -6 1 8 11 9 20
20 20 26 0 5 6 13 13 18 11 7 11 9 -2 14 -9 4 -13 13 -10 21 3 8 12 12 19 10
9 -4 13 1 12 14 0 12 -4 19 -8 16 -4 -2 -9 0 -11 5 -1 5 -12 -2 -22 -17z m28
0 c3 -5 -1 -9 -9 -9 -8 0 -12 4 -9 9 3 4 7 8 9 8 2 0 6 -4 9 -8z m-25 -85 c-2
-1 -13 -9 -24 -17 -19 -14 -19 -14 -6 3 7 9 18 17 24 17 6 0 8 -1 6 -3z m-29
-71 c0 -2 -8 -10 -17 -17 -16 -13 -17 -12 -4 4 13 16 21 21 21 13z"/>
<path d="M1990 5288 c-8 -13 -15 -26 -16 -30 -1 -5 -3 -10 -4 -13 -1 -3 -3 -8
-4 -12 -1 -5 -5 -14 -10 -22 -6 -10 -5 -12 2 -7 7 4 12 3 12 -2 0 -6 -7 -12
-15 -15 -8 -4 -12 -15 -10 -26 2 -11 -1 -23 -6 -26 -5 -4 -7 -10 -4 -15 3 -5
-3 -13 -12 -19 -17 -10 -17 -10 0 -11 9 0 17 -5 17 -11 0 -6 -7 -9 -15 -6 -8
4 -18 1 -22 -6 -10 -17 -12 -76 -2 -83 5 -3 6 3 2 13 -6 16 -5 17 13 3 15 -11
16 -11 7 0 -18 19 -16 35 1 21 19 -16 30 2 20 32 -6 18 -5 20 8 10 12 -10 15
-10 15 2 0 8 -5 11 -10 8 -6 -4 -8 1 -4 11 5 11 3 15 -4 10 -7 -4 -10 -1 -7 7
3 8 12 13 21 11 8 -1 18 2 22 8 4 6 -1 7 -12 3 -17 -7 -17 -6 0 20 9 15 14 27
10 28 -5 0 1 4 12 9 17 7 17 9 3 9 -10 1 -18 5 -18 10 0 4 11 7 24 6 23 -3 24
-1 14 21 -7 14 -17 23 -23 20 -6 -2 -12 2 -12 9 0 7 6 11 14 8 9 -3 13 3 13
21 0 32 -1 32 -20 4z m18 -66 c2 -6 -5 -10 -16 -9 -10 0 -19 6 -19 13 0 15 30
11 35 -4z m-32 -49 c-2 -9 -8 -19 -15 -21 -14 -5 -11 20 4 30 14 10 14 10 11
-9z m-36 -140 c0 -12 -3 -13 -13 -4 -8 6 -16 8 -20 5 -5 -5 -4 4 2 35 2 10 31
-24 31 -36z"/>
<path d="M2802 5234 c-7 -8 -8 -14 -3 -14 10 0 25 19 20 25 -2 1 -10 -3 -17
-11z"/>
<path d="M3494 5173 c4 -7 4 -19 -1 -25 -11 -19 -13 -39 -1 -32 5 3 7 9 4 12
-3 3 -1 11 6 19 8 11 8 17 -2 26 -10 9 -11 9 -6 0z"/>
<path d="M3510 5129 c0 -5 5 -7 10 -4 6 3 10 8 10 11 0 2 -4 4 -10 4 -5 0 -10
-5 -10 -11z"/>
<path d="M1856 4941 c-3 -5 1 -11 9 -14 9 -4 12 -1 8 9 -6 16 -10 17 -17 5z"/>
<path d="M1895 4941 c-3 -5 0 -13 6 -17 7 -4 9 -3 5 4 -3 6 2 13 11 15 16 4
16 5 1 6 -9 0 -19 -3 -23 -8z"/>
<path d="M5185 4900 c3 -5 1 -11 -4 -14 -5 -4 -8 -14 -6 -24 1 -9 -2 -23 -8
-29 -5 -7 -6 -13 -2 -13 4 0 2 -7 -5 -15 -7 -8 -9 -15 -5 -15 4 0 2 -6 -4 -13
-8 -11 -5 -19 16 -38 14 -13 23 -19 19 -12 -3 6 1 16 10 21 11 6 13 11 5 16
-6 4 -11 2 -11 -4 0 -6 -5 -8 -12 -4 -8 5 -3 14 15 30 21 18 23 23 10 28 -12
5 -13 9 -3 21 7 8 17 12 23 8 6 -3 7 -1 3 5 -4 7 0 12 11 13 16 0 16 1 -2 8
-11 5 -20 14 -20 21 0 7 -8 14 -18 16 -9 1 -15 -2 -12 -6z m22 -7 c-4 -3 -2
-12 3 -18 7 -8 4 -18 -10 -30 -14 -13 -17 -22 -10 -30 7 -8 4 -17 -10 -30 -16
-15 -18 -21 -7 -34 11 -14 10 -14 -6 -2 -13 10 -15 17 -6 27 6 8 8 14 5 14 -4
0 -4 6 1 13 4 6 8 15 9 20 1 4 3 9 4 12 1 3 3 13 4 23 1 19 14 42 23 42 4 0 3
-3 0 -7z"/>
<path d="M5193 4865 c0 -8 4 -12 9 -9 5 3 6 10 3 15 -9 13 -12 11 -12 -6z"/>
<path d="M5103 4624 c3 -4 -2 -23 -12 -43 -21 -40 -24 -57 -10 -53 14 3 11
-16 -3 -21 -10 -4 -10 -6 0 -6 7 -1 10 -6 6 -13 -4 -6 -3 -8 4 -4 5 3 13 0 15
-6 4 -8 6 -7 6 4 1 9 7 19 14 22 6 3 3 4 -8 1 -16 -4 -21 0 -21 15 0 11 4 20
8 20 4 0 8 9 8 21 0 11 5 17 10 14 6 -3 10 -1 10 5 0 7 -7 10 -14 7 -10 -4
-13 -1 -9 8 3 8 10 12 17 8 6 -4 5 1 -3 10 -7 9 -16 17 -19 17 -3 0 -3 -3 1
-6z m-17 -82 c-17 -16 -18 -16 -5 5 7 12 15 20 18 17 3 -2 -3 -12 -13 -22z"/>
<path d="M5028 4315 c-9 -19 -8 -19 5 -2 11 13 16 15 19 5 4 -10 8 -9 21 4 15
15 14 16 -9 14 -15 0 -30 -9 -36 -21z"/>
<path d="M6203 4095 c-7 -7 -10 -24 -8 -36 3 -15 -3 -32 -17 -46 -12 -13 -18
-23 -15 -23 4 0 0 -11 -9 -25 -9 -14 -13 -25 -9 -25 3 0 -1 -7 -9 -16 -9 -8
-14 -19 -11 -24 3 -4 -2 -11 -11 -14 -8 -3 -13 -10 -10 -15 3 -5 0 -14 -8 -20
-8 -7 -13 -20 -11 -29 2 -9 4 -19 4 -21 1 -7 60 51 59 58 -3 27 2 33 19 20 9
-8 14 -9 10 -3 -3 6 3 16 13 24 10 8 17 17 14 22 -3 4 1 8 8 8 8 0 6 5 -5 11
-9 6 -15 15 -11 21 4 7 9 6 15 -3 4 -8 6 2 5 24 -2 20 2 38 8 41 7 3 7 5 -1 5
-7 1 -13 6 -13 12 0 5 6 7 13 3 6 -4 9 -4 5 1 -4 4 0 14 10 21 16 12 16 12 -3
11 -14 -1 -19 3 -17 16 3 20 1 21 -15 2z m12 -24 c3 -5 2 -12 -3 -15 -5 -3 -9
1 -9 9 0 17 3 19 12 6z m-8 -61 c1 -11 -3 -20 -8 -20 -6 0 -8 -4 -4 -9 3 -5 1
-13 -5 -16 -8 -5 -8 -11 -1 -19 12 -14 -14 -60 -29 -51 -9 6 -33 -29 -25 -37
3 -3 -6 -15 -19 -27 -17 -16 -24 -19 -22 -8 1 8 7 21 14 29 6 8 8 19 4 23 -4
5 -1 5 6 1 6 -4 13 -2 13 3 1 6 2 15 3 21 0 5 7 15 14 22 10 10 15 10 22 -2 6
-9 10 -10 10 -3 0 7 -8 17 -17 22 -13 8 -14 10 -4 11 8 0 11 3 8 7 -4 3 -2 12
4 20 6 7 8 13 4 13 -5 0 0 9 10 20 10 11 19 20 19 20 1 0 2 -9 3 -20z"/>
<path d="M6146 3912 c-3 -5 1 -9 9 -9 8 0 12 4 9 9 -3 4 -7 8 -9 8 -2 0 -6 -4
-9 -8z"/>
<path d="M6109 3843 c-13 -16 -12 -17 4 -4 16 13 21 21 13 21 -2 0 -10 -8 -17
-17z"/>
<path d="M7225 3790 c-4 -6 -11 -7 -17 -4 -7 4 -8 2 -4 -5 6 -9 11 -9 22 0 14
11 18 19 10 19 -3 0 -8 -5 -11 -10z"/>
<path d="M7150 3756 c-5 -5 -10 -6 -10 -2 0 5 -7 3 -15 -4 -8 -7 -15 -9 -15
-5 0 5 -8 1 -17 -8 -10 -8 -22 -16 -27 -16 -6 0 -11 -7 -12 -15 -1 -8 5 -13
15 -12 9 2 15 7 14 12 -1 5 3 15 9 22 13 15 41 -4 31 -22 -4 -6 1 -5 10 3 9 7
17 10 17 6 0 -4 7 -2 15 5 8 7 15 9 15 5 0 -4 6 -2 13 4 8 6 18 7 23 3 5 -4 1
2 -9 14 -19 23 -40 27 -57 10z m43 -9 c-2 -4 -5 -6 -6 -4 -2 1 -10 -3 -18 -9
-8 -5 -20 -10 -26 -10 -15 1 -18 21 -4 21 5 0 12 3 16 7 8 8 41 3 38 -5z"/>
<path d="M1075 3420 c-3 -5 -1 -10 4 -10 6 0 11 5 11 10 0 6 -2 10 -4 10 -3 0
-8 -4 -11 -10z"/>
<path d="M7310 3000 c0 -5 5 -10 11 -10 5 0 7 5 4 10 -3 6 -8 10 -11 10 -2 0
-4 -4 -4 -10z"/>
<path d="M7310 2976 c0 -2 7 -7 16 -10 8 -3 12 -2 9 4 -6 10 -25 14 -25 6z"/>
<path d="M5345 2841 c-6 -11 13 -26 22 -17 4 3 0 6 -8 6 -11 0 -11 2 1 10 9 6
10 10 3 10 -6 0 -14 -4 -18 -9z"/>
<path d="M7259 2845 c-1 -3 -2 -8 -3 -12 -1 -5 -5 -13 -9 -20 -4 -7 -1 -10 10
-8 10 2 22 4 27 4 6 1 1 8 -10 16 -18 15 -18 15 0 8 13 -4 17 -3 12 5 -7 12
-25 16 -27 7z"/>
<path d="M5325 2791 c-3 -5 0 -13 6 -17 7 -4 9 -3 5 4 -3 5 0 13 6 15 9 4 10
6 1 6 -6 1 -14 -3 -18 -8z"/>
<path d="M6585 2781 c3 -5 1 -11 -5 -13 -6 -2 -6 -8 0 -18 8 -12 10 -12 10 5
0 17 2 17 10 5 8 -13 10 -13 10 1 0 9 -7 20 -16 23 -8 3 -13 2 -9 -3z"/>
<path d="M5723 2743 c4 -6 3 -14 -2 -18 -5 -3 -8 -14 -6 -25 2 -11 -1 -22 -6
-26 -6 -4 -6 -11 2 -20 9 -11 8 -18 -4 -32 -16 -18 -17 -37 -4 -58 4 -7 0 -15
-8 -18 -12 -4 -13 -10 -6 -25 6 -10 7 -22 3 -26 -4 -5 -1 -5 7 0 11 6 13 3 9
-13 -4 -13 -2 -20 4 -16 5 3 8 15 5 25 -3 10 -2 20 2 22 3 2 0 2 -6 1 -7 -2
-13 1 -13 6 0 6 4 10 9 10 10 0 8 19 -4 63 -4 12 -3 18 2 12 12 -15 30 -16 30
0 0 7 -7 11 -16 8 -11 -3 -10 0 3 11 11 9 21 26 23 38 2 12 10 26 18 31 12 6
13 13 4 28 -6 12 -13 18 -16 15 -4 -3 -13 0 -21 7 -11 8 -14 8 -9 0z m31 -25
c-3 -4 0 -8 7 -8 8 0 6 -5 -5 -13 -9 -7 -18 -22 -19 -34 -1 -17 -4 -19 -14
-11 -7 5 -10 15 -6 22 4 6 8 19 9 29 2 24 2 24 19 24 8 0 12 -4 9 -9z"/>
<path d="M5733 2705 c0 -8 4 -12 9 -9 5 3 6 10 3 15 -9 13 -12 11 -12 -6z"/>
<path d="M7161 2737 c-8 -10 -7 -14 2 -14 8 0 14 6 14 14 0 7 -1 13 -2 13 -2
0 -8 -6 -14 -13z"/>
<path d="M6429 2710 c-13 -10 -20 -19 -15 -20 5 0 1 -9 -8 -19 -14 -16 -15
-23 -6 -38 10 -16 10 -15 4 6 -4 15 -2 21 4 17 6 -3 13 -2 17 4 4 6 11 8 16 4
6 -3 3 -11 -6 -18 -15 -10 -14 -12 4 -12 11 0 18 2 16 4 -9 9 26 34 40 28 9
-3 12 0 9 9 -3 8 -13 11 -22 9 -12 -4 -10 0 6 14 12 11 22 24 22 28 0 4 -9 -1
-20 -11 -18 -16 -20 -16 -20 -2 0 22 -13 21 -41 -3z m36 -18 c4 -24 -10 -39
-20 -22 -5 8 -12 7 -23 -2 -13 -11 -14 -11 -7 2 6 8 10 20 10 25 1 6 6 9 13 8
7 -2 12 2 12 9 0 17 10 4 15 -20z"/>
<path d="M6430 2695 c0 -2 6 -8 13 -14 10 -8 14 -7 14 2 0 8 -6 14 -14 14 -7
0 -13 -1 -13 -2z"/>
<path d="M7110 2720 c-8 -5 -17 -7 -21 -4 -4 2 -11 -1 -15 -7 -4 -8 -3 -9 4
-5 7 4 12 3 12 -1 0 -5 10 -10 22 -10 16 -2 19 0 9 6 -11 7 -11 9 0 13 8 3 12
8 9 11 -3 3 -12 2 -20 -3z"/>
<path d="M5785 2688 c-12 -24 -12 -28 -2 -15 16 19 42 24 31 5 -5 -8 -1 -8 10
1 15 13 19 13 26 1 5 -8 7 -17 5 -20 -2 -3 8 -6 23 -7 17 -1 21 1 12 5 -8 4
-15 14 -15 22 0 8 -6 14 -12 13 -7 -2 -13 2 -13 9 0 6 -3 8 -6 5 -4 -3 -15 -2
-25 4 -15 8 -21 4 -34 -23z"/>
<path d="M7040 2701 c-8 -6 -17 -8 -21 -5 -4 2 -10 0 -13 -5 -3 -5 -22 -7 -41
-5 -34 3 -46 -8 -23 -22 7 -5 8 -3 3 7 -7 11 -6 12 6 3 8 -6 22 -10 32 -9 15
3 16 1 5 -12 -10 -13 -10 -17 0 -20 6 -3 9 -10 6 -16 -4 -7 1 -4 11 5 14 13
21 14 29 5 6 -7 10 -11 9 -8 -1 2 5 10 13 18 9 10 11 19 6 27 -5 6 -8 19 -7
29 4 20 4 19 -15 8z m2 -20 c-11 -7 -10 -10 3 -15 9 -3 13 -11 10 -17 -4 -6
-13 -8 -21 -5 -7 3 -16 1 -19 -5 -4 -5 -11 -7 -16 -3 -5 3 -6 11 -2 17 4 7 8
15 9 20 2 12 3 13 26 14 16 2 19 0 10 -6z"/>
<path d="M7012 2676 c4 -5 2 -16 -4 -25 -10 -13 -10 -14 1 -4 7 6 21 9 30 6
18 -7 16 -4 -14 17 -11 8 -17 10 -13 6z"/>
<path d="M5305 2665 c0 -19 3 -36 6 -39 3 -3 5 4 4 17 -1 12 2 27 7 33 5 7 4
14 -4 17 -9 3 -13 -6 -13 -28z"/>
<path d="M5890 2679 c0 -5 5 -9 10 -9 6 0 12 0 15 0 14 0 8 13 -7 16 -10 1
-18 -2 -18 -7z"/>
<path d="M6807 2679 c7 -9 11 -18 8 -20 -4 -5 21 -10 62 -12 14 -1 22 -7 20
-15 -1 -8 6 -16 16 -17 9 -2 15 1 11 6 -5 9 8 13 32 10 7 -1 14 5 17 13 4 10
0 14 -13 11 -12 -2 -26 5 -35 18 -8 12 -15 16 -15 9 0 -8 -5 -10 -12 -5 -20
12 -68 13 -68 1 0 -6 -7 -5 -17 3 -16 12 -17 12 -6 -2z m91 -9 c1 -1 6 -3 12
-4 5 0 14 -7 20 -13 5 -7 7 -11 4 -8 -4 3 -13 -3 -20 -13 -12 -16 -12 -16 -11
3 1 14 -5 20 -20 21 -13 1 -30 2 -39 3 -8 0 -13 5 -10 9 4 8 56 9 64 2z"/>
<path d="M7210 2680 c0 -5 5 -10 10 -10 6 0 10 5 10 10 0 6 -4 10 -10 10 -5 0
-10 -4 -10 -10z"/>
<path d="M5995 2653 c9 -13 11 -23 5 -23 -5 0 -10 -4 -10 -10 0 -5 3 -9 8 -8
4 1 17 -3 30 -10 18 -10 22 -10 20 0 -3 14 31 17 50 4 7 -5 12 -4 12 3 0 6 -5
11 -11 11 -5 0 -8 4 -4 10 3 5 12 7 20 4 8 -4 12 -11 8 -17 -3 -6 -1 -7 5 -3
11 7 6 36 -6 34 -4 0 -10 1 -14 2 -5 1 -17 4 -28 5 -11 1 -22 4 -25 5 -3 1 -9
4 -15 5 -5 1 -11 3 -12 5 -2 1 -13 3 -26 4 -21 3 -21 1 -7 -21z m45 2 c0 4 6
3 13 -2 6 -6 20 -9 30 -8 15 3 16 1 6 -11 -6 -7 -15 -11 -21 -8 -5 3 -15 0
-23 -6 -15 -12 -39 -4 -30 10 3 5 1 11 -5 15 -6 4 -8 11 -4 16 4 6 11 6 20 -2
8 -6 14 -8 14 -4z"/>
<path d="M6036 2633 c-6 -14 -5 -15 5 -6 7 7 10 15 7 18 -3 3 -9 -2 -12 -12z"/>
<path d="M4669 2638 c-5 -10 -6 -18 -2 -18 4 -1 -2 -9 -15 -20 -22 -18 -22
-19 -2 -25 11 -4 17 -11 14 -17 -4 -6 -9 -5 -15 3 -10 16 -24 4 -25 -22 -1
-10 -2 -20 -4 -21 -1 -2 -3 -12 -5 -23 -2 -11 -13 -28 -25 -37 -11 -9 -21 -19
-20 -22 2 -25 -1 -27 -17 -15 -10 7 -15 10 -11 5 3 -4 -1 -16 -10 -27 -9 -11
-16 -23 -15 -27 1 -4 -5 -14 -12 -22 -7 -8 -13 -18 -12 -21 3 -9 -70 -69 -77
-62 -3 3 -6 1 -6 -5 0 -15 13 -15 28 0 7 7 12 8 12 2 0 -6 -5 -15 -12 -22 -9
-9 -6 -11 10 -7 20 3 27 -5 23 -27 0 -4 6 -5 14 -2 13 5 13 8 0 21 -13 13 -13
17 3 31 10 9 11 13 3 7 -10 -6 -8 0 4 16 11 15 24 24 30 21 5 -3 4 -7 -3 -10
-7 -2 -10 -7 -7 -12 3 -4 -2 -13 -10 -20 -19 -16 -19 -26 1 -34 8 -3 13 -2 10
3 -3 5 1 14 9 21 7 6 12 17 9 24 -3 7 2 19 10 26 9 7 13 16 10 21 -3 5 2 9 10
9 9 0 16 4 16 10 0 5 6 8 13 6 6 -1 9 -1 5 1 -14 8 -8 25 6 20 11 -4 13 -1 9
11 -5 14 -3 15 8 5 7 -7 18 -13 24 -13 5 0 2 5 -9 11 -15 9 -16 13 -5 20 12 7
12 9 0 9 -11 0 -11 3 -1 15 7 8 9 15 4 15 -5 0 -2 5 6 10 10 6 11 10 3 10 -7
0 -13 4 -13 10 0 5 8 7 18 4 14 -5 14 -4 2 4 -8 6 -18 8 -24 5 -5 -3 -6 -1 -2
6 4 7 17 9 29 6 17 -5 19 -4 7 4 -11 8 -12 11 -2 11 9 0 11 7 7 21 -5 16 -4
19 5 14 8 -5 11 -4 6 3 -3 6 -1 14 5 17 5 4 8 13 5 21 -3 7 2 17 11 22 14 8
14 10 -1 15 -9 4 -16 12 -16 18 0 8 4 9 13 0 10 -8 14 -7 14 2 0 20 -27 16
-38 -5z m13 -30 c-6 -6 -9 -16 -8 -22 2 -6 1 -8 -1 -3 -3 4 -10 4 -16 0 -7 -3
-4 3 6 14 9 11 14 23 10 28 -5 4 -2 5 5 0 9 -5 10 -11 4 -17z m-37 -68 c-3 -4
1 -10 7 -12 8 -3 3 -10 -12 -18 -21 -11 -23 -11 -14 1 6 8 10 22 9 32 -2 9 1
15 6 11 5 -3 7 -9 4 -14z m-20 -98 c-2 -9 -4 -18 -5 -19 -2 -2 -3 -7 -4 -12 0
-5 -17 -27 -36 -48 -19 -21 -35 -41 -36 -45 -1 -5 -2 -11 -3 -14 0 -4 -7 -1
-15 5 -12 10 -20 5 -42 -28 -15 -23 -28 -41 -29 -41 -1 0 -1 9 0 21 1 11 15
31 31 44 16 14 25 24 20 25 -5 0 -1 9 9 20 10 11 14 20 10 20 -4 0 0 9 10 20
10 11 21 17 25 15 4 -2 15 4 25 15 10 11 15 20 10 20 -4 0 -2 7 5 15 15 18 29
11 25 -13z m-95 -176 c0 -2 -8 -10 -17 -17 -16 -13 -17 -12 -4 4 13 16 21 21
21 13z"/>
<path d="M4605 2450 c-3 -5 -3 -10 1 -10 4 0 -3 -11 -16 -25 -12 -13 -26 -22
-30 -20 -4 3 -13 -2 -20 -10 -7 -8 -9 -15 -5 -15 5 0 1 -8 -9 -19 -15 -17 -15
-19 1 -32 10 -7 15 -9 10 -4 -4 5 11 28 34 51 23 23 41 45 40 48 -1 3 -1 7 0
9 4 13 6 37 4 37 -2 0 -7 -4 -10 -10z m-5 -43 c0 -2 -19 -21 -42 -42 -23 -22
-35 -31 -26 -20 9 11 17 25 17 30 1 6 5 10 11 10 5 0 15 6 22 13 12 12 18 15
18 9z"/>
<path d="M6370 2632 c0 -7 -4 -11 -9 -8 -5 3 -14 0 -20 -8 -8 -9 -30 -13 -71
-11 -33 1 -60 -1 -60 -5 0 -11 30 -21 41 -14 13 8 11 -10 -3 -26 -11 -13 -11
-13 2 -2 7 6 18 12 23 12 4 0 5 -6 1 -12 -5 -10 -4 -10 6 -1 11 10 17 10 29 0
12 -9 13 -9 7 1 -10 17 2 15 21 -4 9 -9 22 -12 32 -8 9 4 28 7 43 8 14 0 24 4
21 9 -2 4 -16 5 -30 2 -18 -3 -23 -1 -16 6 6 6 18 11 27 13 19 3 23 19 7 24
-6 2 -11 -1 -11 -7 0 -6 -5 -11 -11 -11 -5 0 -8 4 -5 9 3 4 -1 17 -9 27 -9 12
-14 14 -15 6z m15 -33 c2 -8 -4 -23 -11 -34 -13 -17 -15 -17 -32 -2 -10 9 -28
15 -39 12 -12 -2 -27 2 -33 10 -9 10 -4 12 24 10 20 -2 39 2 46 10 14 17 43
13 45 -6z"/>
<path d="M6340 2595 c-7 -9 -6 -16 4 -24 14 -12 28 -2 32 25 2 14 -24 14 -36
-1z m24 -16 c-3 -5 -10 -7 -15 -3 -5 3 -7 10 -3 15 3 5 10 7 15 3 5 -3 7 -10
3 -15z"/>
<path d="M6286 2542 c-3 -5 1 -9 9 -9 8 0 12 4 9 9 -3 4 -7 8 -9 8 -2 0 -6 -4
-9 -8z"/>
<path d="M4139 2488 c-5 -18 -6 -38 -1 -34 7 8 12 36 6 36 -2 0 -4 -1 -5 -2z"/>
<path d="M5251 2442 c-1 -7 -5 -11 -10 -8 -4 3 -16 -3 -25 -13 -11 -12 -28
-18 -46 -16 -17 1 -27 -2 -24 -7 3 -5 8 -7 11 -4 3 3 14 -5 24 -17 11 -12 17
-15 14 -7 -4 11 1 16 16 17 18 2 19 0 8 -15 -8 -9 -10 -14 -5 -10 5 4 17 -3
27 -15 20 -24 20 -24 24 18 1 17 3 30 5 30 1 0 3 10 4 22 1 12 -1 20 -5 17 -4
-2 -10 2 -12 8 -4 10 -6 10 -6 0z m3 -24 c-3 -4 0 -8 7 -8 8 0 8 -4 2 -12 -6
-7 -9 -23 -8 -36 1 -13 -2 -19 -7 -14 -8 8 -15 30 -17 56 -1 5 -9 2 -18 -5
-17 -13 -17 -13 0 7 16 20 52 30 41 12z"/>
<path d="M5236 2407 c3 -10 9 -15 12 -12 3 3 0 11 -7 18 -10 9 -11 8 -5 -6z"/>
<path d="M5693 2435 c0 -8 4 -12 9 -9 4 3 8 9 8 15 0 5 -4 9 -8 9 -5 0 -9 -7
-9 -15z"/>
<path d="M5696 2402 c-3 -5 1 -9 9 -9 8 0 12 4 9 9 -3 4 -7 8 -9 8 -2 0 -6 -4
-9 -8z"/>
<path d="M5148 2360 c3 -8 4 -23 4 -32 -1 -15 1 -15 18 0 14 12 16 19 9 29 -6
7 -15 11 -19 8 -5 -3 -10 -2 -13 2 -2 5 -2 1 1 -7z m27 -10 c3 -5 1 -10 -4
-10 -6 0 -11 5 -11 10 0 6 2 10 4 10 3 0 8 -4 11 -10z"/>
<path d="M4155 2359 c-4 -6 -5 -12 -2 -15 2 -3 7 2 10 11 7 17 1 20 -8 4z"/>
<path d="M5200 2346 c0 -2 7 -7 16 -10 8 -3 12 -2 9 4 -6 10 -25 14 -25 6z"/>
<path d="M4037 2313 c-10 -9 -9 -23 1 -23 5 0 9 7 9 15 0 17 -1 18 -10 8z"/>
<path d="M3994 2283 c-10 -10 -22 -18 -27 -18 -6 0 -11 -11 -12 -24 -2 -23 -1
-23 12 -5 8 10 19 19 26 19 7 0 12 5 12 10 0 6 4 16 8 23 12 18 1 15 -19 -5z"/>
<path d="M3912 2214 c-12 -8 -22 -12 -22 -8 0 4 -8 0 -18 -9 -10 -10 -22 -14
-27 -10 -4 5 -5 2 -1 -4 4 -8 2 -13 -5 -13 -7 0 -9 -3 -6 -6 4 -4 13 -1 22 6
8 7 15 9 15 5 0 -4 6 -2 13 4 8 6 17 7 21 3 4 -4 6 -2 4 5 -1 6 6 19 17 27 26
20 16 21 -13 0z"/>
<path d="M5600 2215 c-7 -8 -16 -13 -20 -10 -5 3 -17 -7 -28 -22 -16 -23 -17
-32 -8 -48 12 -23 27 -35 40 -35 6 0 1 6 -9 14 -18 13 -17 14 13 11 18 -1 35
2 39 8 4 6 1 7 -7 2 -10 -6 -12 -4 -7 7 3 9 0 24 -8 35 -11 15 -11 21 2 36 9
9 14 17 11 17 -3 0 -11 -7 -18 -15z m-6 -46 c-3 -5 1 -9 8 -10 10 0 10 -2 0
-6 -6 -2 -10 -9 -7 -13 6 -10 -28 -5 -47 6 -7 5 -5 11 7 21 11 7 15 13 11 13
-4 0 -4 5 -1 10 5 8 11 7 21 -1 7 -6 11 -15 8 -20z"/>
<path d="M5574 2182 c3 -6 -2 -15 -11 -21 -10 -6 -12 -11 -5 -11 6 0 15 0 19
0 11 -1 12 29 1 37 -7 3 -8 1 -4 -5z"/>
<path d="M5626 2182 c-2 -4 -1 -14 4 -21 10 -17 31 -5 23 14 -6 16 -19 20 -27
7z"/>
<path d="M3971 2154 c0 -11 3 -14 6 -6 3 7 2 16 -1 19 -3 4 -6 -2 -5 -13z"/>
<path d="M3745 2130 c-4 -6 -10 -8 -15 -5 -5 3 -11 1 -15 -4 -3 -5 -14 -8 -25
-6 -11 2 -22 0 -24 -4 -9 -15 60 -5 84 12 13 9 19 17 13 17 -7 0 -15 -5 -18
-10z"/>
<path d="M3730 2039 c0 -5 5 -7 10 -4 6 3 10 8 10 11 0 2 -4 4 -10 4 -5 0 -10
-5 -10 -11z"/>
<path d="M2476 1881 c-4 -6 -2 -11 5 -11 7 0 -2 -11 -21 -25 -19 -14 -28 -25
-22 -25 10 0 10 -5 2 -20 -6 -11 -14 -18 -18 -16 -5 3 -14 1 -22 -5 -13 -7
-13 -9 -1 -9 11 0 10 -4 -4 -14 -11 -8 -24 -12 -30 -9 -7 2 -18 -3 -25 -12 -7
-8 -9 -15 -5 -15 4 0 2 -7 -5 -15 -7 -8 -9 -15 -5 -15 4 0 2 -6 -4 -14 -10
-12 -9 -14 6 -11 10 1 25 -1 35 -6 13 -7 15 -5 11 11 -3 11 -10 20 -15 20 -5
0 -6 -5 -2 -12 5 -7 3 -8 -5 -3 -10 5 -10 10 -1 19 8 8 16 5 29 -13 14 -18 20
-21 26 -11 5 9 4 11 -3 6 -7 -4 -12 -2 -12 3 0 10 21 16 43 12 4 0 6 2 6 7 -3
20 2 32 13 26 7 -4 8 -3 4 4 -3 6 3 16 14 22 14 8 19 18 16 35 -3 13 0 25 6
27 6 2 12 12 14 21 1 10 -2 14 -9 10 -6 -4 -8 0 -5 9 8 19 -7 45 -16 29z m11
-62 c-8 -5 -14 -18 -13 -30 2 -39 -80 -109 -102 -87 -8 8 -16 7 -28 -3 -16
-12 -17 -12 -9 1 6 8 10 19 10 24 0 5 6 11 13 14 6 2 12 -4 12 -13 0 -9 5 -13
10 -10 6 4 8 10 5 15 -3 5 4 14 15 20 11 6 17 16 14 22 -4 6 -3 8 3 5 5 -4 20
5 31 18 25 28 28 40 10 29 -9 -5 -8 -2 1 9 11 14 17 15 28 5 12 -10 12 -13 0
-19z"/>
<path d="M2428 1765 c-21 -19 -32 -35 -26 -35 7 0 3 -7 -8 -16 -19 -15 -19
-15 1 -5 23 11 73 61 61 61 -5 0 -3 7 4 15 21 25 7 16 -32 -20z m22 2 c0 -2
-10 -12 -22 -23 l-23 -19 19 23 c18 21 26 27 26 19z"/>
</g>
</svg>
